<?xml version="1.0" encoding="UTF-8"?>
<!DOCTYPE svg PUBLIC "-//W3C//DTD SVG 1.1//EN" "http://www.w3.org/Graphics/SVG/1.1/DTD/svg11.dtd">
<svg xmlns="http://www.w3.org/2000/svg" version="1.1" width="558px" height="447px" style="shape-rendering:geometricPrecision; text-rendering:geometricPrecision; image-rendering:optimizeQuality; fill-rule:evenodd; clip-rule:evenodd" xmlns:xlink="http://www.w3.org/1999/xlink">
<g><path style="opacity:0.024" fill="#e4dadd" d="M 303.5,21.5 C 304.649,21.7911 305.316,22.6244 305.5,24C 305.4,26.37 304.4,28.2034 302.5,29.5C 301.102,26.5647 301.435,23.8981 303.5,21.5 Z"/></g>
<g><path style="opacity:0.176" fill="#efd6dd" d="M 225.5,31.5 C 226.5,31.5 227.5,31.5 228.5,31.5C 228.5,32.8333 228.5,34.1667 228.5,35.5C 225.046,35.7332 224.046,34.3999 225.5,31.5 Z"/></g>
<g><path style="opacity:1" fill="#c4cfdd" d="M 267.5,35.5 C 264.886,35.2771 263.219,36.4438 262.5,39C 258.939,41.1973 256.606,40.1973 255.5,36C 255.816,33.5008 257.149,32.0008 259.5,31.5C 262.658,32.2501 265.325,33.5835 267.5,35.5 Z"/></g>
<g><path style="opacity:0.057" fill="#eae7e8" d="M 271.5,33.5 C 272.274,32.8529 273.274,32.5195 274.5,32.5C 277.826,33.0466 281.16,33.5466 284.5,34C 285.821,35.5445 285.488,36.7112 283.5,37.5C 282.201,36.91 281.368,35.91 281,34.5C 278.126,36.8909 276.626,36.5576 276.5,33.5C 274.833,33.5 273.167,33.5 271.5,33.5 Z"/></g>
<g><path style="opacity:0.004" fill="#e2b0bb" d="M 302.5,34.5 C 303.833,35.1667 303.833,35.1667 302.5,34.5 Z"/></g>
<g><path style="opacity:0.208" fill="#dbd8d9" d="M 393.5,31.5 C 394.995,31.4148 395.995,32.0815 396.5,33.5C 395.68,35.1112 394.346,35.7778 392.5,35.5C 392.433,34.0413 392.766,32.7079 393.5,31.5 Z"/></g>
<g><path style="opacity:0.137" fill="#ddcad0" d="M 267.5,35.5 C 268.708,34.7659 270.041,34.4326 271.5,34.5C 271.5,35.5 271.5,36.5 271.5,37.5C 269.62,37.7709 268.287,37.1042 267.5,35.5 Z"/></g>
<g><path style="opacity:1" fill="#a8c1d6" d="M 226.5,40.5 C 226.325,42.8444 225.158,44.511 223,45.5C 222.601,45.2716 222.435,44.9382 222.5,44.5C 222.5,42.8333 222.5,41.1667 222.5,39.5C 223.959,39.4326 225.292,39.7659 226.5,40.5 Z"/></g>
<g><path style="opacity:0.216" fill="#f5e0e4" d="M 226.5,40.5 C 225.292,39.7659 223.959,39.4326 222.5,39.5C 222.5,41.1667 222.5,42.8333 222.5,44.5C 220.623,43.3409 220.123,41.6742 221,39.5C 223.339,37.9221 225.172,38.2554 226.5,40.5 Z"/></g>
<g><path style="opacity:0.991" fill="#9abcd3" d="M 202.5,49.5 C 203.675,51.0862 205.009,52.5862 206.5,54C 202.333,53.9327 201.666,55.0994 204.5,57.5C 207.212,58.0468 208.712,59.7135 209,62.5C 209.483,61.552 209.649,60.552 209.5,59.5C 211.144,59.1898 212.144,58.1898 212.5,56.5C 213.833,56.5 215.167,56.5 216.5,56.5C 217.864,58.1911 219.197,59.8577 220.5,61.5C 220.5,61.8333 220.5,62.1667 220.5,62.5C 221.72,64.2821 222.386,66.2821 222.5,68.5C 223.873,68.6567 225.207,68.49 226.5,68C 227.738,67.31 227.738,66.81 226.5,66.5C 226.5,66.1667 226.5,65.8333 226.5,65.5C 227.568,64.5655 228.901,64.2322 230.5,64.5C 230.36,62.8762 231.027,61.7096 232.5,61C 232.272,60.6012 231.938,60.4346 231.5,60.5C 231.427,58.9731 232.094,57.9731 233.5,57.5C 234.833,57.5 235.5,56.8333 235.5,55.5C 237.073,52.1069 239.74,50.7736 243.5,51.5C 244.833,52.9335 246.333,54.2668 248,55.5C 248.708,54.6195 249.542,53.9528 250.5,53.5C 251.167,54.1667 251.833,54.8333 252.5,55.5C 254.017,55.4894 255.184,54.8228 256,53.5C 256.919,56.4016 257.752,56.7349 258.5,54.5C 258.5,54.1667 258.5,53.8333 258.5,53.5C 260.083,53.4338 261.75,53.7672 263.5,54.5C 268.868,59.2186 271.201,57.8852 270.5,50.5C 271.244,47.1155 272.577,46.7822 274.5,49.5C 276.97,54.5887 279.303,54.5887 281.5,49.5C 282.013,46.2891 283.346,43.4557 285.5,41C 287.995,40.8425 290.328,40.6759 292.5,40.5C 293.597,43.29 294.597,46.1234 295.5,49C 294.293,51.2659 292.626,53.0992 290.5,54.5C 291.34,55.735 292.34,56.735 293.5,57.5C 296.053,58.2549 298.72,58.9216 301.5,59.5C 309.637,59.1073 317.637,59.1073 325.5,59.5C 326.167,62.1667 326.833,62.1667 327.5,59.5C 327.833,59.5 328.167,59.5 328.5,59.5C 329.75,59.4226 330.583,58.756 331,57.5C 331.667,58.1667 332.333,58.8333 333,59.5C 335.826,57.694 337.992,55.3607 339.5,52.5C 340.71,52.0679 341.71,51.4013 342.5,50.5C 344.752,50.9156 346.252,52.249 347,54.5C 347.26,52.3825 348.26,50.7158 350,49.5C 351.508,51.8384 353.675,52.8384 356.5,52.5C 356.264,55.8294 357.097,58.8294 359,61.5C 359.739,60.4258 360.739,59.7591 362,59.5C 364.414,60.9574 366.914,62.2908 369.5,63.5C 370.213,65.7759 370.713,68.1093 371,70.5C 372.333,71.1667 373.333,72.1667 374,73.5C 377.279,71.1831 379.446,72.1831 380.5,76.5C 380.995,78.4817 381.495,80.4817 382,82.5C 383.625,81.5881 384.459,82.2547 384.5,84.5C 382.564,86.2432 382.23,88.2432 383.5,90.5C 384.293,90.0688 385.127,89.7355 386,89.5C 389.792,91.4736 393.625,93.1403 397.5,94.5C 397.579,95.9305 397.246,97.2638 396.5,98.5C 397.614,99.7759 398.614,99.7759 399.5,98.5C 402.365,98.0548 404.865,98.7215 407,100.5C 407.46,103.962 406.96,107.296 405.5,110.5C 404.549,111.919 404.216,113.585 404.5,115.5C 404.062,115.435 403.728,115.601 403.5,116C 404.956,116.423 405.456,117.256 405,118.5C 404,119.833 403,119.833 402,118.5C 400.28,119.384 399.114,120.717 398.5,122.5C 397.012,125.186 396.345,124.853 396.5,121.5C 395.5,121.5 394.5,121.5 393.5,121.5C 393.263,122.791 393.596,123.791 394.5,124.5C 394.328,125.492 394.662,126.158 395.5,126.5C 396.167,126.5 396.833,126.5 397.5,126.5C 395.969,127.925 396.302,128.591 398.5,128.5C 397.713,129.989 397.713,131.823 398.5,134C 397.743,135.512 396.743,136.846 395.5,138C 397.119,138.236 398.119,139.069 398.5,140.5C 397.791,141.404 396.791,141.737 395.5,141.5C 395.167,141.5 394.833,141.5 394.5,141.5C 393.624,141.369 392.957,141.702 392.5,142.5C 395.309,143.8 397.976,143.8 400.5,142.5C 401.345,138.554 403.012,137.888 405.5,140.5C 404.355,141.793 404.689,142.959 406.5,144C 407.793,144.49 409.127,144.657 410.5,144.5C 410.833,144.5 411.167,144.5 411.5,144.5C 412.462,146.986 413.295,146.986 414,144.5C 415,145.167 416,145.833 417,146.5C 417.816,145.177 418.983,144.511 420.5,144.5C 425.527,143.411 429.693,145.078 433,149.5C 434.314,154.842 434.814,160.175 434.5,165.5C 433.167,165.5 431.833,165.5 430.5,165.5C 430.579,166.93 430.246,168.264 429.5,169.5C 431.679,171.717 431.679,173.717 429.5,175.5C 430.673,178.515 431.673,181.515 432.5,184.5C 431.675,185.386 430.675,185.719 429.5,185.5C 428.681,189.775 427.347,193.775 425.5,197.5C 424.167,197.5 422.833,197.5 421.5,197.5C 421.178,199.475 421.178,201.142 421.5,202.5C 421.5,203.167 421.5,203.833 421.5,204.5C 423.167,204.5 424.833,204.5 426.5,204.5C 425.746,206.505 424.579,207.172 423,206.5C 422.5,207.667 421.667,208.5 420.5,209C 420.728,209.399 421.062,209.565 421.5,209.5C 420.811,210.707 420.645,212.041 421,213.5C 420.25,214.126 419.416,214.626 418.5,215C 420.259,216.008 421.426,217.508 422,219.5C 423.333,218.833 424.333,217.833 425,216.5C 426.628,217.819 426.461,219.152 424.5,220.5C 424.957,221.298 425.624,221.631 426.5,221.5C 427.233,225.582 427.566,229.915 427.5,234.5C 427.145,235.522 426.478,236.189 425.5,236.5C 423.121,237.562 423.121,238.895 425.5,240.5C 424.689,241.216 424.022,242.05 423.5,243C 424.429,244.077 425.096,245.244 425.5,246.5C 425.5,246.833 425.5,247.167 425.5,247.5C 424.414,247.62 423.747,248.287 423.5,249.5C 422.846,250.815 422.846,251.815 423.5,252.5C 423.5,253.167 423.5,253.833 423.5,254.5C 422.662,254.842 422.328,255.508 422.5,256.5C 422.5,256.833 422.5,257.167 422.5,257.5C 421.522,257.811 420.855,258.478 420.5,259.5C 422.411,260.477 424.411,261.143 426.5,261.5C 428.245,268.314 429.911,275.314 431.5,282.5C 431.343,283.873 431.51,285.207 432,286.5C 433.388,287.736 434.554,289.069 435.5,290.5C 433.37,297.172 430.204,297.839 426,292.5C 423.476,295.069 420.976,295.069 418.5,292.5C 417.818,293.243 417.151,293.909 416.5,294.5C 415.542,294.953 414.708,295.619 414,296.5C 410.17,291.842 408.67,292.509 409.5,298.5C 412.388,297.99 414.721,298.656 416.5,300.5C 415.801,303.945 414.134,304.278 411.5,301.5C 410.817,301.863 410.15,302.196 409.5,302.5C 408.609,301.89 407.609,301.557 406.5,301.5C 405.833,301.5 405.5,301.833 405.5,302.5C 404.833,302.5 404.5,302.833 404.5,303.5C 404.167,303.5 403.833,303.5 403.5,303.5C 401.368,303.554 400.035,304.554 399.5,306.5C 397.435,306.953 395.768,307.953 394.5,309.5C 392.678,310.281 392.011,311.448 392.5,313C 390.68,312.524 389.013,312.691 387.5,313.5C 386.081,314.451 384.415,314.784 382.5,314.5C 382.784,316.415 382.451,318.081 381.5,319.5C 380.21,318.942 379.377,317.942 379,316.5C 377.938,317.899 376.605,318.899 375,319.5C 373.333,318.167 371.667,318.167 370,319.5C 368.739,319.241 367.739,318.574 367,317.5C 365.454,318.503 365.287,319.503 366.5,320.5C 366.836,324.167 366.003,327.5 364,330.5C 362.134,327.841 360.967,328.174 360.5,331.5C 361.686,332.961 361.686,334.295 360.5,335.5C 359.522,335.811 358.855,336.478 358.5,337.5C 359.246,338.736 359.579,340.07 359.5,341.5C 359.082,342.222 358.416,342.722 357.5,343C 359.886,344.887 361.053,347.387 361,350.5C 362.299,350.966 363.799,350.966 365.5,350.5C 365.422,359.163 361.922,361.496 355,357.5C 352.018,358.177 349.185,358.177 346.5,357.5C 344.169,361.012 341.502,361.346 338.5,358.5C 336.295,356.084 334.295,356.084 332.5,358.5C 332.5,359.833 331.833,360.5 330.5,360.5C 328.83,360.249 327.33,359.582 326,358.5C 325.292,359.381 324.458,360.047 323.5,360.5C 321.958,359.699 320.292,359.366 318.5,359.5C 318.632,356.43 318.299,353.43 317.5,350.5C 316.703,347.291 315.037,346.791 312.5,349C 313.571,349.852 314.571,350.685 315.5,351.5C 314.687,352.653 313.687,352.653 312.5,351.5C 310.151,352.543 308.151,353.876 306.5,355.5C 305.833,355.5 305.5,355.833 305.5,356.5C 304.542,356.953 303.708,357.619 303,358.5C 302.311,357.643 301.478,356.977 300.5,356.5C 298.574,357.675 296.907,358.341 295.5,358.5C 295.167,358.5 294.833,358.5 294.5,358.5C 293.448,358.351 292.448,358.517 291.5,359C 293.182,363.047 292.515,363.88 289.5,361.5C 288.702,361.957 288.369,362.624 288.5,363.5C 288.217,364.289 287.717,364.956 287,365.5C 285.846,364.257 284.512,363.257 283,362.5C 281.951,364.107 280.451,364.773 278.5,364.5C 278.541,360.757 277.874,360.59 276.5,364C 275.552,364.483 274.552,364.649 273.5,364.5C 273.737,363.209 273.404,362.209 272.5,361.5C 271.25,361.577 270.417,362.244 270,363.5C 269.292,362.619 268.458,361.953 267.5,361.5C 266.833,361.833 266.167,362.167 265.5,362.5C 263.312,363.444 261.979,365.111 261.5,367.5C 258.689,368.475 255.689,369.142 252.5,369.5C 250.307,375.031 246.64,379.364 241.5,382.5C 240.957,382.44 240.624,382.107 240.5,381.5C 241.559,379.466 242.559,377.466 243.5,375.5C 243.925,372.881 244.925,370.547 246.5,368.5C 248.085,367.998 248.585,366.998 248,365.5C 246.436,365.088 244.936,364.755 243.5,364.5C 243.5,364.167 243.5,363.833 243.5,363.5C 244.488,362.205 245.488,360.872 246.5,359.5C 247.439,358.673 247.105,358.006 245.5,357.5C 245.5,357.167 245.5,356.833 245.5,356.5C 244.879,355.534 243.545,354.534 241.5,353.5C 240.478,353.855 239.811,354.522 239.5,355.5C 238.167,354.833 236.833,354.167 235.5,353.5C 235.25,352.078 234.417,351.078 233,350.5C 228.518,351.108 224.018,351.442 219.5,351.5C 217.38,350.405 215.88,348.739 215,346.5C 214,347.833 213,347.833 212,346.5C 211.878,348.437 211.045,349.77 209.5,350.5C 208.833,349.5 208.167,348.5 207.5,347.5C 207.5,347.167 207.5,346.833 207.5,346.5C 210.147,344.449 210.147,342.449 207.5,340.5C 206.209,340.263 205.209,340.596 204.5,341.5C 202.61,341.703 201.11,341.037 200,339.5C 198.887,340.305 197.721,340.972 196.5,341.5C 195.332,338.531 193.999,338.198 192.5,340.5C 188.4,341.217 184.4,341.384 180.5,341C 179.663,342.011 179.33,343.178 179.5,344.5C 177.516,344.617 175.85,343.95 174.5,342.5C 173.522,342.977 172.689,343.643 172,344.5C 170.847,342.182 169.347,340.182 167.5,338.5C 166.178,338.67 165.011,338.337 164,337.5C 162.271,337.974 161.105,338.974 160.5,340.5C 158.244,344.011 156.244,347.678 154.5,351.5C 149.971,353.08 145.804,352.413 142,349.5C 139.928,352.154 138.261,351.82 137,348.5C 136.365,345.513 135.865,342.846 135.5,340.5C 133.15,341.861 130.816,343.194 128.5,344.5C 125.909,345.254 124.076,346.921 123,349.5C 121.961,348.756 121.461,347.756 121.5,346.5C 124.316,343.546 126.649,340.212 128.5,336.5C 129.267,335.828 129.934,334.995 130.5,334C 129.263,333.768 128.263,333.268 127.5,332.5C 127.5,331.5 127.5,330.5 127.5,329.5C 121.427,328.391 120.094,325.225 123.5,320C 123.333,319.5 123.167,319 123,318.5C 122.329,319.252 121.496,319.586 120.5,319.5C 119.761,319.631 119.094,319.464 118.5,319C 119.252,318.329 119.586,317.496 119.5,316.5C 118.5,315.833 117.5,315.167 116.5,314.5C 115.749,310.022 115.416,305.689 115.5,301.5C 112.455,297.801 108.788,294.801 104.5,292.5C 103.741,289.843 103.074,287.177 102.5,284.5C 103.808,278.45 103.808,272.45 102.5,266.5C 103.244,262.73 104.244,259.064 105.5,255.5C 105.697,253.52 105.03,251.52 103.5,249.5C 105.02,247.412 106.02,245.078 106.5,242.5C 107.167,243.167 107.833,243.833 108.5,244.5C 110.193,243.525 111.693,242.192 113,240.5C 113.333,240.833 113.667,241.167 114,241.5C 114.195,240.181 114.028,238.847 113.5,237.5C 114.885,236.053 114.552,235.053 112.5,234.5C 111.859,233.518 111.193,232.518 110.5,231.5C 111.695,230.033 111.695,228.533 110.5,227C 111.272,225.779 112.272,224.779 113.5,224C 110.928,223.568 109.594,222.068 109.5,219.5C 110.461,217.735 110.795,215.735 110.5,213.5C 106.885,213.845 103.552,213.178 100.5,211.5C 99.5416,211.047 98.7083,210.381 98,209.5C 96.9571,206.243 96.4571,202.91 96.5,199.5C 95.5,199.5 94.5,199.5 93.5,199.5C 93.33,198.178 93.6634,197.011 94.5,196C 93.1955,195.196 92.5288,194.029 92.5,192.5C 93.5522,190.777 93.5522,189.11 92.5,187.5C 95.0237,185.81 97.0237,183.643 98.5,181C 100.653,180.901 102.319,180.067 103.5,178.5C 104.5,179.833 105.5,179.833 106.5,178.5C 107.5,178.5 108.5,178.5 109.5,178.5C 109.5,177.167 109.5,175.833 109.5,174.5C 110.791,174.263 111.791,174.596 112.5,175.5C 112.263,176.791 112.596,177.791 113.5,178.5C 114.751,180.561 116.418,180.894 118.5,179.5C 119.174,177.805 119.841,176.138 120.5,174.5C 121.833,173.833 121.833,173.167 120.5,172.5C 119.833,171.167 119.167,171.167 118.5,172.5C 116.737,173.954 115.403,173.62 114.5,171.5C 112.678,169.596 111.012,167.596 109.5,165.5C 109.292,163.08 109.626,160.747 110.5,158.5C 111.689,157.571 113.022,157.238 114.5,157.5C 114.5,156.5 114.5,155.5 114.5,154.5C 114.068,153.29 113.401,152.29 112.5,151.5C 110.241,150.656 109.241,148.989 109.5,146.5C 111.179,146.715 112.179,146.048 112.5,144.5C 113.167,144.5 113.5,144.167 113.5,143.5C 113.833,143.5 114.167,143.5 114.5,143.5C 115.239,143.631 115.906,143.464 116.5,143C 116.167,141.333 115.833,139.667 115.5,138C 117.323,138.027 118.99,137.193 120.5,135.5C 124.143,135.484 127.81,135.484 131.5,135.5C 132.167,135.833 132.833,136.167 133.5,136.5C 134.17,138.291 134.837,139.958 135.5,141.5C 136.833,141.5 137.5,140.833 137.5,139.5C 137.5,138.5 137.5,137.5 137.5,136.5C 138.822,136.33 139.989,136.663 141,137.5C 141.717,136.956 142.217,136.289 142.5,135.5C 142.5,134.833 142.5,134.167 142.5,133.5C 142.703,131.956 143.37,130.622 144.5,129.5C 143.754,128.264 143.421,126.93 143.5,125.5C 145.398,126.096 147.065,126.096 148.5,125.5C 151.106,124.15 151.106,122.65 148.5,121C 149.907,119.548 151.407,119.715 153,121.5C 153.833,120.667 154.667,119.833 155.5,119C 155.153,117.431 154.986,115.598 155,113.5C 156.041,115.311 157.207,115.645 158.5,114.5C 159.586,114.38 160.253,113.713 160.5,112.5C 159.471,110.197 159.471,107.864 160.5,105.5C 159.448,105.649 158.448,105.483 157.5,105C 160.66,103.177 161.326,100.677 159.5,97.5C 160.461,95.7354 160.795,93.7354 160.5,91.5C 160.842,90.6618 161.508,90.3284 162.5,90.5C 163.5,90.1667 164.167,89.5 164.5,88.5C 164.5,88.1667 164.5,87.8333 164.5,87.5C 166.153,87.3404 167.486,86.6737 168.5,85.5C 168.833,85.5 169.167,85.5 169.5,85.5C 172.89,85.4887 175.556,84.1554 177.5,81.5C 180.028,82.4978 180.028,83.3311 177.5,84C 178.527,84.5133 179.527,85.0133 180.5,85.5C 180.833,85.5 181.167,85.5 181.5,85.5C 182.209,86.404 183.209,86.7373 184.5,86.5C 186.727,85.5994 187.727,83.9328 187.5,81.5C 188.5,81.1667 189.167,80.5 189.5,79.5C 190.239,79.631 190.906,79.4643 191.5,79C 189.43,78.0524 187.93,76.5524 187,74.5C 186.28,76.0557 185.113,77.0557 183.5,77.5C 182.833,77.5 182.167,77.5 181.5,77.5C 181.189,76.5222 180.522,75.8555 179.5,75.5C 178.735,76.6119 177.735,77.2786 176.5,77.5C 176.5,76.8333 176.167,76.5 175.5,76.5C 174.167,75.1667 174.167,73.8333 175.5,72.5C 176.451,71.0813 176.784,69.4147 176.5,67.5C 176.263,66.209 176.596,65.209 177.5,64.5C 181.029,65.1106 182.862,63.7773 183,60.5C 182.329,59.7476 181.496,59.4142 180.5,59.5C 179.62,57.8632 178.954,56.0299 178.5,54C 180.264,50.7084 181.431,47.2084 182,43.5C 184.365,42.7109 186.532,41.5442 188.5,40C 192.221,39.7932 195.888,40.2932 199.5,41.5C 201.682,43.7109 202.682,46.3775 202.5,49.5 Z M 209.5,59.5 C 209.649,60.552 209.483,61.552 209,62.5C 208.712,59.7135 207.212,58.0468 204.5,57.5C 204.369,56.7611 204.536,56.0944 205,55.5C 207.118,56.2829 208.618,57.6162 209.5,59.5 Z M 181.5,85.5 C 181.167,85.5 180.833,85.5 180.5,85.5C 180.511,82.9991 181.178,82.8324 182.5,85C 182.272,85.3988 181.938,85.5654 181.5,85.5 Z M 137.5,139.5 C 137.5,140.833 136.833,141.5 135.5,141.5C 135.34,139.801 135.506,138.134 136,136.5C 136.232,137.737 136.732,138.737 137.5,139.5 Z M 272.5,361.5 C 273.404,362.209 273.737,363.209 273.5,364.5C 272.833,364.5 272.167,364.5 271.5,364.5C 271.557,363.391 271.89,362.391 272.5,361.5 Z"/></g>
<g><path style="opacity:0.727" fill="#a0bfd4" d="M 336.5,45.5 C 338.026,46.1047 339.026,47.2714 339.5,49C 338.316,50.1455 338.316,51.3121 339.5,52.5C 338.5,52.5 337.5,52.5 336.5,52.5C 336.737,51.209 336.404,50.209 335.5,49.5C 335.5,48.8333 335.167,48.5 334.5,48.5C 334.782,47.2223 335.449,46.2223 336.5,45.5 Z"/></g>
<g><path style="opacity:0.008" fill="#fbefef" d="M 336.5,45.5 C 337.209,44.596 338.209,44.2627 339.5,44.5C 339.386,47.216 340.386,49.216 342.5,50.5C 341.71,51.4013 340.71,52.0679 339.5,52.5C 338.316,51.3121 338.316,50.1455 339.5,49C 339.026,47.2714 338.026,46.1047 336.5,45.5 Z"/></g>
<g><path style="opacity:0.004" fill="#fefffe" d="M 238.5,48.5 C 239.833,49.1667 239.833,49.1667 238.5,48.5 Z"/></g>
<g><path style="opacity:0.043" fill="#ede0ed" d="M 254.5,48.5 C 255.675,48.281 256.675,48.6143 257.5,49.5C 255.948,50.7979 254.948,50.4646 254.5,48.5 Z"/></g>
<g><path style="opacity:0.051" fill="#eae7e9" d="M 243.5,47.5 C 247.31,48.7542 247.31,49.7542 243.5,50.5C 243.5,49.5 243.5,48.5 243.5,47.5 Z"/></g>
<g><path style="opacity:0.016" fill="#f7eaeb" d="M 281.5,49.5 C 279.303,54.5887 276.97,54.5887 274.5,49.5C 275.756,49.0962 276.923,48.4295 278,47.5C 279.077,48.4295 280.244,49.0962 281.5,49.5 Z"/></g>
<g><path style="opacity:0.02" fill="#ddc4cb" d="M 328.5,48.5 C 330.465,48.9483 330.798,49.9483 329.5,51.5C 327.481,50.8671 327.147,49.8671 328.5,48.5 Z"/></g>
<g><path style="opacity:0.082" fill="#ebe2e2" d="M 334.5,48.5 C 334.556,51.517 334.89,51.8503 335.5,49.5C 336.404,50.209 336.737,51.209 336.5,52.5C 337.5,52.5 338.5,52.5 339.5,52.5C 337.992,55.3607 335.826,57.694 333,59.5C 332.333,58.8333 331.667,58.1667 331,57.5C 330.583,58.756 329.75,59.4226 328.5,59.5C 329.09,56.7146 330.424,54.3813 332.5,52.5C 331.554,50.7422 331.554,49.0755 332.5,47.5C 333.183,47.8627 333.85,48.1961 334.5,48.5 Z"/></g>
<g><path style="opacity:0.01" fill="#f5eef0" d="M 263.5,54.5 C 261.75,53.7672 260.083,53.4338 258.5,53.5C 257.167,53.8333 257.167,54.1667 258.5,54.5C 257.752,56.7349 256.919,56.4016 256,53.5C 255.184,54.8228 254.017,55.4894 252.5,55.5C 253.476,54.1851 254.476,52.8518 255.5,51.5C 256.5,52.8333 257.5,52.8333 258.5,51.5C 260.598,51.9572 262.264,52.9572 263.5,54.5 Z"/></g>
<g><path style="opacity:0.133" fill="#f0e1df" d="M 243.5,51.5 C 245.527,51.3379 247.527,51.5045 249.5,52C 250.056,52.3826 250.389,52.8826 250.5,53.5C 249.542,53.9528 248.708,54.6195 248,55.5C 246.333,54.2668 244.833,52.9335 243.5,51.5 Z"/></g>
<g><path style="opacity:0.008" fill="#fe80ff" d="M 221.5,53.5 C 222.833,54.1667 222.833,54.1667 221.5,53.5 Z"/></g>
<g><path style="opacity:0.035" fill="#c9babc" d="M 388.5,50.5 C 391.284,52.5528 390.951,54.2195 387.5,55.5C 386.348,53.6029 386.681,51.9362 388.5,50.5 Z"/></g>
<g><path style="opacity:0.169" fill="#f0f0ef" d="M 216.5,56.5 C 215.374,55.1417 215.374,53.8084 216.5,52.5C 219.14,53.873 219.14,55.2064 216.5,56.5 Z"/></g>
<g><path style="opacity:0.012" fill="#eda4ed" d="M 227.5,53.5 C 228.525,53.8966 228.692,54.5632 228,55.5C 227.536,54.9056 227.369,54.2389 227.5,53.5 Z"/></g>
<g><path style="opacity:0.239" fill="#f2eeed" d="M 235.5,55.5 C 235.5,56.8333 234.833,57.5 233.5,57.5C 231.07,55.704 231.07,54.0374 233.5,52.5C 234.176,53.6016 234.842,54.6016 235.5,55.5 Z"/></g>
<g><path style="opacity:0.059" fill="#f0efef" d="M 293.5,53.5 C 296.797,53.3287 297.131,53.9954 294.5,55.5C 293.702,55.0431 293.369,54.3764 293.5,53.5 Z"/></g>
<g><path style="opacity:0.082" fill="#ede3e6" d="M 202.5,49.5 C 205.301,50.7659 208.301,51.5992 211.5,52C 212.38,53.3561 212.714,54.8561 212.5,56.5C 212.144,58.1898 211.144,59.1898 209.5,59.5C 208.618,57.6162 207.118,56.2829 205,55.5C 204.536,56.0944 204.369,56.7611 204.5,57.5C 201.666,55.0994 202.333,53.9327 206.5,54C 205.009,52.5862 203.675,51.0862 202.5,49.5 Z"/></g>
<g><path style="opacity:0.004" fill="#cbb0b8" d="M 316.5,56.5 C 316.897,55.475 317.563,55.3083 318.5,56C 317.906,56.4643 317.239,56.631 316.5,56.5 Z"/></g>
<g><path style="opacity:0.065" fill="#f2dddf" d="M 270.5,50.5 C 271.201,57.8852 268.868,59.2186 263.5,54.5C 265.876,51.599 267.709,51.9324 269,55.5C 269.198,53.6183 269.698,51.9516 270.5,50.5 Z"/></g>
<g><path style="opacity:0.004" fill="#eedfde" d="M 316.5,56.5 C 315.833,57.1667 315.833,57.1667 316.5,56.5 Z"/></g>
<g><path style="opacity:0.094" fill="#f1dde2" d="M 301.5,59.5 C 298.72,58.9216 296.053,58.2549 293.5,57.5C 295.144,57.7135 296.644,57.3802 298,56.5C 299.729,56.9743 300.895,57.9743 301.5,59.5 Z"/></g>
<g><path style="opacity:0.082" fill="#fae4df" d="M 180.5,59.5 C 181.496,59.4142 182.329,59.7476 183,60.5C 182.862,63.7773 181.029,65.1106 177.5,64.5C 178.765,63.5207 180.099,62.5207 181.5,61.5C 181.137,60.8165 180.804,60.1499 180.5,59.5 Z"/></g>
<g><path style="opacity:0.008" fill="#e7dddd" d="M 382.5,58.5 C 384.337,58.6395 384.67,59.3061 383.5,60.5C 382.702,60.0431 382.369,59.3764 382.5,58.5 Z"/></g>
<g><path style="opacity:0.051" fill="#e6dce6" d="M 220.5,61.5 C 220.948,59.5354 221.948,59.2021 223.5,60.5C 222.675,61.3857 221.675,61.719 220.5,61.5 Z"/></g>
<g><path style="opacity:0.047" fill="#f0e3e5" d="M 231.5,60.5 C 231.938,60.4346 232.272,60.6012 232.5,61C 231.027,61.7096 230.36,62.8762 230.5,64.5C 228.901,64.2322 227.568,64.5655 226.5,65.5C 225.475,65.1034 225.308,64.4368 226,63.5C 227.135,63.273 228.302,62.9396 229.5,62.5C 228.167,61.8333 226.833,61.1667 225.5,60.5C 226.901,58.7227 228.401,57.056 230,55.5C 230.198,57.3817 230.698,59.0484 231.5,60.5 Z"/></g>
<g><path style="opacity:0.233" fill="#fdd9da" d="M 325.5,59.5 C 326.167,59.5 326.833,59.5 327.5,59.5C 326.833,62.1667 326.167,62.1667 325.5,59.5 Z"/></g>
<g><path style="opacity:0.007" fill="#fefffe" d="M 176.5,67.5 C 176.784,69.4147 176.451,71.0813 175.5,72.5C 175.672,71.5084 175.338,70.8417 174.5,70.5C 174.427,68.9731 175.094,67.9731 176.5,67.5 Z"/></g>
<g><path style="opacity:0.149" fill="#faeff1" d="M 220.5,62.5 C 222.795,63.4746 224.795,64.8079 226.5,66.5C 227.738,66.81 227.738,67.31 226.5,68C 225.207,68.49 223.873,68.6567 222.5,68.5C 222.386,66.2821 221.72,64.2821 220.5,62.5 Z"/></g>
<g><path style="opacity:0.004" fill="#e8dee1" d="M 437.5,75.5 C 438.251,74.4265 439.251,74.2599 440.5,75C 439.648,76.7284 438.648,76.895 437.5,75.5 Z"/></g>
<g><path style="opacity:0.004" fill="#e8dce2" d="M 166.5,76.5 C 166.897,75.475 167.563,75.3083 168.5,76C 167.906,76.4643 167.239,76.631 166.5,76.5 Z"/></g>
<g><path style="opacity:0.016" fill="#e8dfe0" d="M 174.5,70.5 C 174.328,71.4916 174.662,72.1583 175.5,72.5C 174.167,73.8333 174.167,75.1667 175.5,76.5C 174.596,77.209 174.263,78.209 174.5,79.5C 169.982,77.6338 168.648,74.4672 170.5,70C 171.928,69.4209 173.262,69.5876 174.5,70.5 Z"/></g>
<g><path style="opacity:0.004" fill="#faf9f7" d="M 181.5,77.5 C 179.666,78.494 177.999,78.494 176.5,77.5C 177.735,77.2786 178.735,76.6119 179.5,75.5C 180.522,75.8555 181.189,76.5222 181.5,77.5 Z"/></g>
<g><path style="opacity:0.039" fill="#f1e1e4" d="M 189.5,79.5 C 189.167,80.5 188.5,81.1667 187.5,81.5C 186.63,79.7263 185.297,78.393 183.5,77.5C 185.113,77.0557 186.28,76.0557 187,74.5C 187.93,76.5524 189.43,78.0524 191.5,79C 190.906,79.4643 190.239,79.631 189.5,79.5 Z"/></g>
<g><path style="opacity:1" fill="#b2c8da" d="M 417.5,81.5 C 414.463,83.1859 413.13,82.1859 413.5,78.5C 414.002,76.9153 415.002,76.4153 416.5,77C 417.38,78.3561 417.714,79.8561 417.5,81.5 Z"/></g>
<g><path style="opacity:0.024" fill="#eaeae9" d="M 380.5,76.5 C 381.806,77.9678 383.306,79.3012 385,80.5C 385.765,82.0657 385.598,83.3991 384.5,84.5C 384.459,82.2547 383.625,81.5881 382,82.5C 381.495,80.4817 380.995,78.4817 380.5,76.5 Z"/></g>
<g><path style="opacity:0.004" fill="#ddd1d5" d="M 162.5,83.5 C 161.761,83.631 161.094,83.4643 160.5,83C 161.437,82.3083 162.103,82.475 162.5,83.5 Z"/></g>
<g><path style="opacity:0.006" fill="#ecdadb" d="M 174.5,79.5 C 177.983,79.6906 181.316,80.3573 184.5,81.5C 183.929,83.36 183.929,85.0267 184.5,86.5C 183.209,86.7373 182.209,86.404 181.5,85.5C 181.938,85.5654 182.272,85.3988 182.5,85C 181.178,82.8324 180.511,82.9991 180.5,85.5C 179.527,85.0133 178.527,84.5133 177.5,84C 180.028,83.3311 180.028,82.4978 177.5,81.5C 175.556,84.1554 172.89,85.4887 169.5,85.5C 170.684,84.3121 170.684,83.1455 169.5,82C 170.766,81.6905 171.933,81.1905 173,80.5C 174.107,81.7119 174.607,81.3786 174.5,79.5 Z M 181.5,85.5 C 181.167,85.5 180.833,85.5 180.5,85.5C 180.511,82.9991 181.178,82.8324 182.5,85C 182.272,85.3988 181.938,85.5654 181.5,85.5 Z"/></g>
<g><path style="opacity:0.173" fill="#fce5ec" d="M 413.5,78.5 C 413.13,82.1859 414.463,83.1859 417.5,81.5C 417.389,82.1174 417.056,82.6174 416.5,83C 418.058,83.21 419.391,83.71 420.5,84.5C 417.763,84.4013 415.096,84.7347 412.5,85.5C 412.452,83.167 412.785,80.8337 413.5,78.5 Z"/></g>
<g><path style="opacity:1" fill="#a9c1d6" d="M 420.5,84.5 C 423.167,87.8333 423.167,91.1667 420.5,94.5C 416.888,95.0762 413.888,94.0762 411.5,91.5C 410.861,90.9032 410.528,90.0698 410.5,89C 410.387,87.3009 411.053,86.1342 412.5,85.5C 415.096,84.7347 417.763,84.4013 420.5,84.5 Z"/></g>
<g><path style="opacity:0.035" fill="#e8e7e8" d="M 148.5,89.5 C 148.415,88.0047 149.081,87.0047 150.5,86.5C 151.639,88.3957 150.973,89.3957 148.5,89.5 Z"/></g>
<g><path style="opacity:0.09" fill="#e9e0e1" d="M 168.5,85.5 C 167.486,86.6737 166.153,87.3404 164.5,87.5C 163.167,87.8333 163.167,88.1667 164.5,88.5C 164.167,89.5 163.5,90.1667 162.5,90.5C 161.048,89.6981 159.382,89.1981 157.5,89C 159.194,87.0645 160.861,85.2312 162.5,83.5C 164.371,83.1412 165.871,82.1412 167,80.5C 167.87,81.1079 168.37,81.9412 168.5,83C 167.616,84.098 166.616,84.598 165.5,84.5C 166.325,85.3857 167.325,85.719 168.5,85.5 Z"/></g>
<g><path style="opacity:1" fill="#f5f8fa" d="M 322.5,87.5 C 324.776,87.7565 325.943,89.0898 326,91.5C 327.055,100.493 328.055,109.493 329,118.5C 329.57,123.101 330.57,127.434 332,131.5C 329.978,132.991 328.312,132.658 327,130.5C 325.599,118.362 323.932,106.362 322,94.5C 318.693,103.727 315.693,113.061 313,122.5C 310.085,128.856 307.752,128.856 306,122.5C 304.852,114.464 303.519,106.464 302,98.5C 301.667,98.8333 301.333,99.1667 301,99.5C 297.826,110.699 295.16,122.032 293,133.5C 291.989,134.337 290.822,134.67 289.5,134.5C 288.488,120.402 286.821,106.402 284.5,92.5C 285.822,92.33 286.989,92.6634 288,93.5C 289.426,103.817 290.759,114.15 292,124.5C 293.492,115.707 295.492,107.041 298,98.5C 299.191,95.4659 301.358,93.7993 304.5,93.5C 306.334,102.841 308.167,112.175 310,121.5C 313.1,109.693 317.267,98.3596 322.5,87.5 Z"/></g>
<g><path style="opacity:0.006" fill="#f2f2f2" d="M 148.5,89.5 C 148.217,90.2891 147.717,90.9558 147,91.5C 146.472,90.184 146.972,89.5173 148.5,89.5 Z"/></g>
<g><path style="opacity:1" fill="#f9fafc" d="M 212.5,89.5 C 213.79,90.0577 214.623,91.0577 215,92.5C 215.5,104.829 215.667,117.162 215.5,129.5C 223.5,128.833 231.5,128.167 239.5,127.5C 239.67,128.822 239.337,129.989 238.5,131C 229.483,131.724 220.483,132.558 211.5,133.5C 212.393,118.775 212.727,104.108 212.5,89.5 Z"/></g>
<g><path style="opacity:0.004" fill="#dbcbce" d="M 148.5,91.5 C 150.973,91.9473 151.14,92.9473 149,94.5C 148.517,93.552 148.351,92.552 148.5,91.5 Z"/></g>
<g><path style="opacity:0.152" fill="#ebebeb" d="M 143.5,91.5 C 145.332,92.1405 145.665,93.1405 144.5,94.5C 142.481,93.8671 142.147,92.8671 143.5,91.5 Z"/></g>
<g><path style="opacity:0.008" fill="#d7c8cc" d="M 154.5,92.5 C 157.797,92.3287 158.131,92.9954 155.5,94.5C 154.702,94.0431 154.369,93.3764 154.5,92.5 Z"/></g>
<g><path style="opacity:0.286" fill="#f9e9ec" d="M 160.5,91.5 C 160.795,93.7354 160.461,95.7354 159.5,97.5C 159.579,96.0695 159.246,94.7362 158.5,93.5C 158.855,92.4777 159.522,91.811 160.5,91.5 Z"/></g>
<g><path style="opacity:0.063" fill="#fde2e6" d="M 411.5,91.5 C 413.888,94.0762 416.888,95.0762 420.5,94.5C 418.372,95.6291 416.039,95.7958 413.5,95C 412.177,94.1841 411.511,93.0174 411.5,91.5 Z"/></g>
<g><path style="opacity:1" fill="#f3f7f9" d="M 254.5,95.5 C 261.241,95.1712 267.908,95.6712 274.5,97C 278.67,101.855 278.003,106.188 272.5,110C 268.19,112.549 263.69,114.715 259,116.5C 258.5,123.492 258.334,130.492 258.5,137.5C 257.5,137.5 256.5,137.5 255.5,137.5C 254.558,124.87 254.225,112.204 254.5,99.5C 249.638,99.7875 245.304,101.454 241.5,104.5C 240.246,102.741 240.579,101.241 242.5,100C 246.571,98.3695 250.571,96.8695 254.5,95.5 Z"/></g>
<g><path style="opacity:0.012" fill="#f8eceb" d="M 397.5,94.5 C 398.167,95.8333 398.833,97.1667 399.5,98.5C 398.614,99.7759 397.614,99.7759 396.5,98.5C 397.246,97.2638 397.579,95.9305 397.5,94.5 Z"/></g>
<g><path style="opacity:0.161" fill="#d5c7cc" d="M 138.5,97.5 C 142.06,98.3109 142.226,99.3109 139,100.5C 137.317,99.8235 137.15,98.8235 138.5,97.5 Z"/></g>
<g><path style="opacity:0.004" fill="#d3c7ca" d="M 143.5,97.5 C 144.773,98.0768 144.773,98.7435 143.5,99.5C 142.537,99.0302 142.537,98.3635 143.5,97.5 Z"/></g>
<g><path style="opacity:1" fill="#9abcd3" d="M 257.5,98.5 C 262.88,98.3243 268.213,98.6576 273.5,99.5C 273.945,102.365 273.278,104.865 271.5,107C 267.446,109.694 263.112,111.861 258.5,113.5C 257.506,108.544 257.173,103.544 257.5,98.5 Z"/></g>
<g><path style="opacity:0.008" fill="#fefffe" d="M 133.5,104.5 C 134.833,105.167 134.833,105.167 133.5,104.5 Z"/></g>
<g><path style="opacity:0.02" fill="#c3bebf" d="M 101.5,109.5 C 103.337,109.639 103.67,110.306 102.5,111.5C 101.702,111.043 101.369,110.376 101.5,109.5 Z"/></g>
<g><path style="opacity:0.035" fill="#e6dcdd" d="M 405.5,110.5 C 405.511,112.017 406.177,113.184 407.5,114C 406.756,115.039 405.756,115.539 404.5,115.5C 404.216,113.585 404.549,111.919 405.5,110.5 Z"/></g>
<g><path style="opacity:0.172" fill="#a5c2d6" d="M 479.5,117.5 C 479.737,118.791 479.404,119.791 478.5,120.5C 477.127,120.657 475.793,120.49 474.5,120C 475.833,119.333 475.833,118.667 474.5,118C 475.416,117.626 476.25,117.126 477,116.5C 477.671,117.252 478.504,117.586 479.5,117.5 Z"/></g>
<g><path style="opacity:0.027" fill="#e5b8c0" d="M 98.5,115.5 C 99.7562,115.461 100.756,115.961 101.5,117C 100.62,118.356 100.286,119.856 100.5,121.5C 99.5,121.5 98.5,121.5 97.5,121.5C 97.3253,119.379 97.6586,117.379 98.5,115.5 Z"/></g>
<g><path style="opacity:0.004" fill="#dacacb" d="M 462.5,117.5 C 463.833,118.167 463.833,118.167 462.5,117.5 Z"/></g>
<g><path style="opacity:0.169" fill="#ebe4e8" d="M 434.5,117.5 C 437.701,118.839 438.035,120.506 435.5,122.5C 433.296,121.218 432.962,119.551 434.5,117.5 Z"/></g>
<g><path style="opacity:0.051" fill="#f0dfe3" d="M 479.5,117.5 C 478.504,117.586 477.671,117.252 477,116.5C 476.25,117.126 475.416,117.626 474.5,118C 475.833,118.667 475.833,119.333 474.5,120C 475.793,120.49 477.127,120.657 478.5,120.5C 474.341,122.586 472.341,121.252 472.5,116.5C 474.06,116.481 475.56,116.148 477,115.5C 478.301,115.639 479.134,116.305 479.5,117.5 Z"/></g>
<g><path style="opacity:0.004" fill="#e4dedd" d="M 401.5,122.5 C 402.833,123.167 402.833,123.167 401.5,122.5 Z"/></g>
<g><path style="opacity:0.022" fill="#eee2e4" d="M 159.5,97.5 C 161.326,100.677 160.66,103.177 157.5,105C 158.448,105.483 159.448,105.649 160.5,105.5C 159.471,107.864 159.471,110.197 160.5,112.5C 160.253,113.713 159.586,114.38 158.5,114.5C 157.207,115.645 156.041,115.311 155,113.5C 154.986,115.598 155.153,117.431 155.5,119C 154.667,119.833 153.833,120.667 153,121.5C 151.407,119.715 149.907,119.548 148.5,121C 151.106,122.65 151.106,124.15 148.5,125.5C 147.065,126.096 145.398,126.096 143.5,125.5C 143.421,126.93 143.754,128.264 144.5,129.5C 143.37,130.622 142.703,131.956 142.5,133.5C 138.714,134.695 138.714,135.362 142.5,135.5C 142.217,136.289 141.717,136.956 141,137.5C 139.989,136.663 138.822,136.33 137.5,136.5C 137.5,137.5 137.5,138.5 137.5,139.5C 136.732,138.737 136.232,137.737 136,136.5C 135.506,138.134 135.34,139.801 135.5,141.5C 134.837,139.958 134.17,138.291 133.5,136.5C 132.833,136.167 132.167,135.833 131.5,135.5C 127.81,135.484 124.143,135.484 120.5,135.5C 120.5,134.5 120.5,133.5 120.5,132.5C 122.582,132.472 124.416,133.139 126,134.5C 126.935,129.926 128.435,129.593 130.5,133.5C 132.371,132.233 134.204,132.233 136,133.5C 137.667,131.372 139.834,130.039 142.5,129.5C 141.456,126.492 139.623,124.158 137,122.5C 136.506,120.866 136.34,119.199 136.5,117.5C 133.753,117.187 131.086,117.52 128.5,118.5C 128.849,121.802 128.849,124.969 128.5,128C 127.004,128.507 125.837,128.007 125,126.5C 124.481,127.516 123.647,128.182 122.5,128.5C 121.133,127.775 119.8,127.108 118.5,126.5C 119.32,124.188 120.153,121.854 121,119.5C 123.292,118.21 125.292,116.543 127,114.5C 127.393,112.801 126.893,111.301 125.5,110C 126.619,108.124 128.286,107.291 130.5,107.5C 130.52,116.741 131.186,116.741 132.5,107.5C 133.107,107.624 133.44,107.957 133.5,108.5C 134.5,108.5 135.5,108.5 136.5,108.5C 136.064,105.636 136.897,103.303 139,101.5C 140.848,104.041 143.348,105.041 146.5,104.5C 146.5,105.5 146.5,106.5 146.5,107.5C 145.167,107.833 145.167,108.167 146.5,108.5C 145.289,111.58 144.956,114.58 145.5,117.5C 146.268,118.263 146.768,119.263 147,120.5C 148.733,118.398 150.733,118.065 153,119.5C 153.167,119.167 153.333,118.833 153.5,118.5C 151.955,117.548 150.288,117.215 148.5,117.5C 148.5,116.5 148.5,115.5 148.5,114.5C 151.321,114.684 152.988,113.351 153.5,110.5C 153.023,109.522 152.357,108.689 151.5,108C 152.833,107.667 154.167,107.333 155.5,107C 152.967,105.084 152.967,103.084 155.5,101C 154.253,99.5064 154.253,98.0064 155.5,96.5C 156.728,98.1759 158.061,98.5092 159.5,97.5 Z M 145.5,117.5 C 144.457,119.852 143.124,120.019 141.5,118C 142.682,116.232 144.015,116.065 145.5,117.5 Z M 141.5,111.5 C 142.776,112.386 142.776,113.386 141.5,114.5C 140.438,113.575 140.438,112.575 141.5,111.5 Z"/></g>
<g><path style="opacity:0.008" fill="#e6d1d7" d="M 131.5,118.5 C 133.346,118.222 134.68,118.889 135.5,120.5C 134.68,122.111 133.346,122.778 131.5,122.5C 131.5,121.167 131.5,119.833 131.5,118.5 Z"/></g>
<g><path style="opacity:0.906" fill="#98bcd2" d="M 133.5,108.5 C 135.488,110.475 137.322,110.475 139,108.5C 141.113,110.271 140.947,111.771 138.5,113C 139.731,114.183 139.731,115.349 138.5,116.5C 136.674,116.08 134.674,116.08 132.5,116.5C 132.194,113.615 132.527,110.948 133.5,108.5 Z"/></g>
<g><path style="opacity:0.004" fill="#ece2e4" d="M 146.5,108.5 C 146.5,108.167 146.5,107.833 146.5,107.5C 151.833,107.833 151.833,108.167 146.5,108.5 Z"/></g>
<g><path style="opacity:0.012" fill="#decfcf" d="M 148.5,103.5 C 152.97,103.03 153.47,104.03 150,106.5C 148.961,105.756 148.461,104.756 148.5,103.5 Z"/></g>
<g><path style="opacity:0.008" fill="#d9d5d5" d="M 408.5,122.5 C 409.573,123.251 409.74,124.251 409,125.5C 407.272,124.648 407.105,123.648 408.5,122.5 Z"/></g>
<g><path style="opacity:0.006" fill="#eee1e4" d="M 398.5,122.5 C 399.695,122.866 400.361,123.699 400.5,125C 399.571,126.077 398.904,127.244 398.5,128.5C 396.302,128.591 395.969,127.925 397.5,126.5C 396.833,125.167 396.167,125.167 395.5,126.5C 394.662,126.158 394.328,125.492 394.5,124.5C 393.596,123.791 393.263,122.791 393.5,121.5C 394.5,121.5 395.5,121.5 396.5,121.5C 396.345,124.853 397.012,125.186 398.5,122.5 Z"/></g>
<g><path style="opacity:0.275" fill="#e0d8da" d="M 434.5,123.5 C 435.833,123.5 437.167,123.5 438.5,123.5C 438.5,124.5 438.5,125.5 438.5,126.5C 437.167,126.5 435.833,126.5 434.5,126.5C 434.5,125.5 434.5,124.5 434.5,123.5 Z"/></g>
<g><path style="opacity:0.035" fill="#eae4e4" d="M 118.5,126.5 C 119.735,128.773 119.402,130.606 117.5,132C 118.636,133.145 119.636,134.312 120.5,135.5C 118.99,137.193 117.323,138.027 115.5,138C 115.833,139.667 116.167,141.333 116.5,143C 115.906,143.464 115.239,143.631 114.5,143.5C 114.951,139.589 114.951,135.756 114.5,132C 114.759,130.739 115.426,129.739 116.5,129C 115.027,128.29 114.36,127.124 114.5,125.5C 115.959,125.433 117.292,125.766 118.5,126.5 Z"/></g>
<g><path style="opacity:0.106" fill="#cfabb3" d="M 407.5,127.5 C 410.167,128.5 410.167,129.5 407.5,130.5C 404.833,129.5 404.833,128.5 407.5,127.5 Z"/></g>
<g><path style="opacity:0.02" fill="#e9e0df" d="M 407.5,127.5 C 409.628,126.371 411.961,126.204 414.5,127C 416.011,129.782 415.178,131.615 412,132.5C 410.272,132.101 408.772,131.434 407.5,130.5C 410.167,129.5 410.167,128.5 407.5,127.5 Z"/></g>
<g><path style="opacity:1" fill="#a7c0d4" d="M 453.5,151.5 C 451.097,151.552 448.764,151.219 446.5,150.5C 445.067,148.442 444.4,146.108 444.5,143.5C 446.104,142.713 446.771,141.38 446.5,139.5C 447.791,139.737 448.791,139.404 449.5,138.5C 462.151,134.652 464.651,138.318 457,149.5C 456.184,150.823 455.017,151.489 453.5,151.5 Z"/></g>
<g><path style="opacity:0.275" fill="#efd7d8" d="M 449.5,138.5 C 448.791,139.404 447.791,139.737 446.5,139.5C 446.771,141.38 446.104,142.713 444.5,143.5C 445.038,141.883 445.371,140.216 445.5,138.5C 446.833,138.5 448.167,138.5 449.5,138.5 Z"/></g>
<g><path style="opacity:0.02" fill="#f5e8eb" d="M 410.5,144.5 C 409.127,144.657 407.793,144.49 406.5,144C 404.689,142.959 404.355,141.793 405.5,140.5C 407.161,137.839 408.828,137.839 410.5,140.5C 409.91,141.799 408.91,142.632 407.5,143C 408.737,143.232 409.737,143.732 410.5,144.5 Z"/></g>
<g><path style="opacity:0.043" fill="#ecd6d8" d="M 413.5,139.5 C 414.376,139.369 415.043,139.702 415.5,140.5C 413.192,141.873 412.525,141.54 413.5,139.5 Z"/></g>
<g><path style="opacity:0.035" fill="#f6dfe2" d="M 398.5,140.5 C 399.167,141.167 399.833,141.833 400.5,142.5C 397.976,143.8 395.309,143.8 392.5,142.5C 392.957,141.702 393.624,141.369 394.5,141.5C 394.833,142.833 395.167,142.833 395.5,141.5C 396.791,141.737 397.791,141.404 398.5,140.5 Z"/></g>
<g><path style="opacity:0.016" fill="#ece9ea" d="M 113.5,143.5 C 112.833,143.5 112.5,143.833 112.5,144.5C 110.146,145.494 109.146,144.494 109.5,141.5C 111.38,141.229 112.713,141.896 113.5,143.5 Z"/></g>
<g><path style="opacity:0.043" fill="#f0ecea" d="M 420.5,144.5 C 418.983,144.511 417.816,145.177 417,146.5C 416,145.833 415,145.167 414,144.5C 413.295,146.986 412.462,146.986 411.5,144.5C 413.68,143.883 415.68,142.883 417.5,141.5C 418.548,142.548 419.548,143.548 420.5,144.5 Z"/></g>
<g><path style="opacity:1" fill="#f7fcfb" d="M 250.5,146.5 C 288.273,144.612 310.273,162.278 316.5,199.5C 317.167,199.833 317.833,200.167 318.5,200.5C 325.734,198.191 333.068,196.191 340.5,194.5C 342.384,194.716 344.051,195.383 345.5,196.5C 346.48,199.086 346.813,201.753 346.5,204.5C 345.022,204.238 343.689,204.571 342.5,205.5C 337.699,209.625 332.365,212.958 326.5,215.5C 325.585,216.328 324.919,217.328 324.5,218.5C 326.922,222.344 329.589,226.01 332.5,229.5C 337.121,229.189 341.788,229.189 346.5,229.5C 349.574,231.719 350.907,234.719 350.5,238.5C 348.508,238.328 346.842,238.995 345.5,240.5C 344.601,244.538 342.934,248.205 340.5,251.5C 337.833,252.167 335.167,252.833 332.5,253.5C 331.079,256.009 329.412,258.343 327.5,260.5C 325.5,259.167 323.5,257.833 321.5,256.5C 319.984,251.961 320.317,247.628 322.5,243.5C 318.753,239.082 314.42,235.416 309.5,232.5C 304.334,239.495 299.667,246.828 295.5,254.5C 294.672,255.415 293.672,256.081 292.5,256.5C 290.208,255.21 288.208,253.543 286.5,251.5C 285.167,251.167 283.833,250.833 282.5,250.5C 256.812,258.936 235.146,252.936 217.5,232.5C 216.003,228.835 214.003,225.502 211.5,222.5C 202.768,196.017 209.101,173.683 230.5,155.5C 237.286,152.26 243.953,149.26 250.5,146.5 Z"/></g>
<g><path style="opacity:0.067" fill="#f0dbdd" d="M 444.5,143.5 C 444.4,146.108 445.067,148.442 446.5,150.5C 443.585,148.761 442.919,146.428 444.5,143.5 Z"/></g>
<g><path style="opacity:1" fill="#88adc3" d="M 250.5,150.5 C 256.537,150.171 262.537,150.504 268.5,151.5C 270.086,153.67 271.42,156.004 272.5,158.5C 271.246,160.334 270.579,162.334 270.5,164.5C 268.11,164.855 265.777,165.522 263.5,166.5C 258.972,163.779 254.639,164.112 250.5,167.5C 246.036,173.918 240.036,175.918 232.5,173.5C 227.512,168.654 227.512,163.987 232.5,159.5C 238.684,156.408 244.684,153.408 250.5,150.5 Z"/></g>
<g><path style="opacity:0.031" fill="#f6dfdf" d="M 446.5,150.5 C 448.764,151.219 451.097,151.552 453.5,151.5C 452.726,152.147 451.726,152.48 450.5,152.5C 448.645,152.66 447.312,151.993 446.5,150.5 Z"/></g>
<g><path style="opacity:1" fill="#98bcd2" d="M 274.5,152.5 C 280.211,153.734 285.544,155.734 290.5,158.5C 290.799,160.604 290.466,162.604 289.5,164.5C 284.001,168.774 281.001,174.44 280.5,181.5C 283.405,184.926 283.072,187.926 279.5,190.5C 277.92,196.768 278.586,202.768 281.5,208.5C 285.648,212.404 289.981,216.071 294.5,219.5C 291.403,226.879 289.069,234.545 287.5,242.5C 286.5,243.5 285.5,244.5 284.5,245.5C 267.504,252.56 250.837,251.893 234.5,243.5C 231.921,239.896 228.588,237.562 224.5,236.5C 224.129,233.108 222.463,230.442 219.5,228.5C 211.507,214.562 209.507,199.895 213.5,184.5C 215.832,178.494 219.166,173.16 223.5,168.5C 233.516,181.365 243.85,181.698 254.5,169.5C 257.97,168.197 261.303,168.531 264.5,170.5C 273.33,167.685 276.663,161.685 274.5,152.5 Z"/></g>
<g><path style="opacity:0.063" fill="#e9d9dd" d="M 112.5,151.5 C 113.401,152.29 114.068,153.29 114.5,154.5C 109.095,155.836 108.428,154.836 112.5,151.5 Z"/></g>
<g><path style="opacity:0.004" fill="#e4e5e5" d="M 98.5,154.5 C 99.1894,153.226 100.023,153.226 101,154.5C 101.667,156.167 101.667,157.833 101,159.5C 100.901,157.347 100.067,155.681 98.5,154.5 Z"/></g>
<g><path style="opacity:0.004" fill="#e0eee3" d="M 108.5,156.5 C 109.525,156.897 109.692,157.563 109,158.5C 108.536,157.906 108.369,157.239 108.5,156.5 Z"/></g>
<g><path style="opacity:1" fill="#a9c6d9" d="M 453.5,157.5 C 458.528,157.718 460.195,160.218 458.5,165C 454.422,164.383 452.755,161.883 453.5,157.5 Z"/></g>
<g><path style="opacity:0.004" fill="#fefffe" d="M 435.5,159.5 C 436.525,159.897 436.692,160.563 436,161.5C 435.536,160.906 435.369,160.239 435.5,159.5 Z"/></g>
<g><path style="opacity:0.004" fill="#e6e6e6" d="M 100.5,160.5 C 101.267,161.172 101.934,162.005 102.5,163C 100.939,163.188 100.272,162.355 100.5,160.5 Z"/></g>
<g><path style="opacity:0.02" fill="#e8e8e8" d="M 98.5,164.5 C 100.983,164.73 101.483,165.397 100,166.5C 98.9701,166.164 98.4701,165.497 98.5,164.5 Z"/></g>
<g><path style="opacity:1" fill="#88adc3" d="M 292.5,164.5 C 299.807,167.479 304.807,172.812 307.5,180.5C 309.278,186.873 310.945,193.206 312.5,199.5C 311.5,200.5 310.5,201.5 309.5,202.5C 306.584,197.58 302.918,193.247 298.5,189.5C 294.809,187.244 290.809,186.244 286.5,186.5C 283.438,179.334 285.105,173.334 291.5,168.5C 292.429,167.311 292.762,165.978 292.5,164.5 Z"/></g>
<g><path style="opacity:1" fill="#98bcd2" d="M 488.5,167.5 C 486.94,167.519 485.44,167.852 484,168.5C 482.317,167.824 482.15,166.824 483.5,165.5C 483.833,165.5 484.167,165.5 484.5,165.5C 485.822,165.67 486.989,165.337 488,164.5C 488.483,165.448 488.649,166.448 488.5,167.5 Z"/></g>
<g><path style="opacity:0.008" fill="#e7e6e5" d="M 105.5,164.5 C 106.773,165.077 106.773,165.743 105.5,166.5C 104.537,166.03 104.537,165.363 105.5,164.5 Z"/></g>
<g><path style="opacity:0.212" fill="#f1dcde" d="M 488.5,167.5 C 488.649,166.448 488.483,165.448 488,164.5C 486.989,165.337 485.822,165.67 484.5,165.5C 486.33,163.279 488.33,163.112 490.5,165C 489.934,165.995 489.267,166.828 488.5,167.5 Z"/></g>
<g><path style="opacity:0.035" fill="#efd7d8" d="M 483.5,165.5 C 482.15,166.824 482.317,167.824 484,168.5C 485.44,167.852 486.94,167.519 488.5,167.5C 486.084,169.951 483.417,170.117 480.5,168C 481.078,166.583 482.078,165.75 483.5,165.5 Z"/></g>
<g><path style="opacity:0.102" fill="#eae2e5" d="M 109.5,165.5 C 111.012,167.596 112.678,169.596 114.5,171.5C 109.14,174.638 107.807,173.472 110.5,168C 109.748,167.329 109.414,166.496 109.5,165.5 Z"/></g>
<g><path style="opacity:0.008" fill="#ebebeb" d="M 118.5,172.5 C 119.167,172.5 119.833,172.5 120.5,172.5C 120.5,173.167 120.5,173.833 120.5,174.5C 119.167,174.5 118.5,173.833 118.5,172.5 Z"/></g>
<g><path style="opacity:0.004" fill="#e2d9db" d="M 436.5,172.5 C 438.337,172.639 438.67,173.306 437.5,174.5C 436.702,174.043 436.369,173.376 436.5,172.5 Z"/></g>
<g><path style="opacity:0.039" fill="#ead8db" d="M 106.5,178.5 C 105.5,179.833 104.5,179.833 103.5,178.5C 103.606,175.892 104.772,173.892 107,172.5C 107.5,173 108,173.5 108.5,174C 107.733,175.47 107.067,176.97 106.5,178.5 Z"/></g>
<g><path style="opacity:0.031" fill="#e0c1c8" d="M 112.5,175.5 C 114.01,176.728 115.51,176.728 117,175.5C 117.5,176 118,176.5 118.5,177C 117.095,178.269 115.429,178.769 113.5,178.5C 112.596,177.791 112.263,176.791 112.5,175.5 Z"/></g>
<g><path style="opacity:0.025" fill="#ede5e9" d="M 98.5,175.5 C 103.833,176.5 103.833,177.5 98.5,178.5C 98.5,177.5 98.5,176.5 98.5,175.5 Z"/></g>
<g><path style="opacity:1" fill="#88adc3" d="M 282.5,190.5 C 286.555,190.176 290.555,190.509 294.5,191.5C 298.833,195.833 303.167,200.167 307.5,204.5C 318.5,218.167 329.5,231.833 340.5,245.5C 338.95,247.959 336.95,248.626 334.5,247.5C 320.5,236.167 306.5,224.833 292.5,213.5C 289.5,210.5 286.5,207.5 283.5,204.5C 282.953,201.298 281.953,198.298 280.5,195.5C 282.005,194.158 282.672,192.492 282.5,190.5 Z"/></g>
<g><path style="opacity:0.004" fill="#d8d2d8" d="M 429.5,189.5 C 430.525,189.897 430.692,190.563 430,191.5C 429.536,190.906 429.369,190.239 429.5,189.5 Z"/></g>
<g><path style="opacity:1" fill="#88adc3" d="M 336.5,198.5 C 338.5,198.5 340.5,198.5 342.5,198.5C 342.5,199.833 342.5,201.167 342.5,202.5C 334.5,206.5 326.5,210.5 318.5,214.5C 317.167,211.167 315.833,207.833 314.5,204.5C 322.294,203.39 329.627,201.39 336.5,198.5 Z"/></g>
<g><path style="opacity:0.153" fill="#f0e1e5" d="M 425.5,197.5 C 427.545,199.696 427.878,202.03 426.5,204.5C 424.833,204.5 423.167,204.5 421.5,204.5C 424.187,202.606 424.187,201.939 421.5,202.5C 421.178,201.142 421.178,199.475 421.5,197.5C 422.833,197.5 424.167,197.5 425.5,197.5 Z"/></g>
<g><path style="opacity:0.004" fill="#ceb5b9" d="M 447.5,196.5 C 449.97,197.36 450.137,198.694 448,200.5C 446.666,199.122 446.499,197.789 447.5,196.5 Z"/></g>
<g><path style="opacity:0.004" fill="#d0c1c1" d="M 429.5,200.5 C 430.289,200.783 430.956,201.283 431.5,202C 430.184,202.528 429.517,202.028 429.5,200.5 Z"/></g>
<g><path style="opacity:0.004" fill="#e3d9e2" d="M 441.5,200.5 C 442.525,200.897 442.692,201.563 442,202.5C 441.536,201.906 441.369,201.239 441.5,200.5 Z"/></g>
<g><path style="opacity:0.004" fill="#e9e8e9" d="M 436.5,201.5 C 437.525,201.897 437.692,202.563 437,203.5C 436.536,202.906 436.369,202.239 436.5,201.5 Z"/></g>
<g><path style="opacity:1" fill="#f6fbfb" d="M 244.5,188.5 C 247.247,188.187 249.914,188.52 252.5,189.5C 256.935,192.051 261.601,194.051 266.5,195.5C 273.815,202.479 274.482,210.146 268.5,218.5C 270.67,225.046 271.003,231.713 269.5,238.5C 266.982,243.934 262.649,246.6 256.5,246.5C 252.124,246.885 248.791,245.219 246.5,241.5C 239.855,241.382 234.189,239.049 229.5,234.5C 228.697,231.756 227.697,229.089 226.5,226.5C 227.961,221.282 228.961,215.948 229.5,210.5C 230.833,206.5 233.5,203.833 237.5,202.5C 238.509,198.463 239.509,194.463 240.5,190.5C 242.483,190.843 243.817,190.176 244.5,188.5 Z"/></g>
<g><path style="opacity:1" fill="#88adc3" d="M 246.5,192.5 C 251.974,193.562 257.307,195.229 262.5,197.5C 265.519,200.203 267.519,203.536 268.5,207.5C 267.167,210.833 265.833,214.167 264.5,217.5C 266.601,224.41 266.934,231.41 265.5,238.5C 264.5,239.5 263.5,240.5 262.5,241.5C 256.202,243.569 250.869,242.236 246.5,237.5C 237.723,238.052 232.389,234.052 230.5,225.5C 231.822,220.572 232.822,215.572 233.5,210.5C 235.5,209.167 237.5,207.833 239.5,206.5C 240.509,202.463 241.509,198.463 242.5,194.5C 244.483,194.843 245.817,194.176 246.5,192.5 Z"/></g>
<g><path style="opacity:0.008" fill="#eaeaeb" d="M 435.5,205.5 C 436.675,205.281 437.675,205.614 438.5,206.5C 436.948,207.798 435.948,207.465 435.5,205.5 Z"/></g>
<g><path style="opacity:0.424" fill="#dedbdb" d="M 44.5,208.5 C 45.9778,208.238 47.3112,208.571 48.5,209.5C 46.5365,212.194 45.2032,211.861 44.5,208.5 Z"/></g>
<g><path style="opacity:0.039" fill="#efe5e6" d="M 100.5,211.5 C 103.552,213.178 106.885,213.845 110.5,213.5C 110.795,215.735 110.461,217.735 109.5,219.5C 109.545,214.053 108.545,213.553 106.5,218C 108.161,221.15 107.161,222.65 103.5,222.5C 103.5,221.5 103.5,220.5 103.5,219.5C 102.5,219.5 101.5,219.5 100.5,219.5C 99.8466,218.193 99.1799,216.86 98.5,215.5C 99.1799,214.14 99.8466,212.807 100.5,211.5 Z"/></g>
<g><path style="opacity:0.021" fill="#f0e1e3" d="M 421.5,209.5 C 423.094,210.983 424.76,212.483 426.5,214C 427.538,216.207 427.538,218.707 426.5,221.5C 425.624,221.631 424.957,221.298 424.5,220.5C 426.461,219.152 426.628,217.819 425,216.5C 424.333,217.833 423.333,218.833 422,219.5C 421.426,217.508 420.259,216.008 418.5,215C 419.416,214.626 420.25,214.126 421,213.5C 420.645,212.041 420.811,210.707 421.5,209.5 Z"/></g>
<g><path style="opacity:0.008" fill="#d7c3c9" d="M 429.5,219.5 C 429.494,216.452 430.494,215.952 432.5,218C 431.756,219.039 430.756,219.539 429.5,219.5 Z"/></g>
<g><path style="opacity:0.294" fill="#e0d3d7" d="M 453.5,213.5 C 457.127,215.118 457.294,217.118 454,219.5C 452.2,217.635 452.034,215.635 453.5,213.5 Z"/></g>
<g><path style="opacity:0.027" fill="#cfcdcd" d="M 440.5,216.5 C 443.293,216.74 443.793,217.74 442,219.5C 440.961,218.756 440.461,217.756 440.5,216.5 Z"/></g>
<g><path style="opacity:0.004" fill="#fefffe" d="M 429.5,219.5 C 428.833,220.167 428.833,220.167 429.5,219.5 Z"/></g>
<g><path style="opacity:0.098" fill="#ded8d9" d="M 100.5,219.5 C 102.917,221.496 102.25,222.496 98.5,222.5C 98.2852,220.821 98.9519,219.821 100.5,219.5 Z"/></g>
<g><path style="opacity:1" fill="#88adc3" d="M 296.5,222.5 C 300.474,223.828 303.807,226.162 306.5,229.5C 302.236,237.028 297.236,244.028 291.5,250.5C 291.167,248.833 290.833,247.167 290.5,245.5C 292.04,237.672 294.04,230.006 296.5,222.5 Z"/></g>
<g><path style="opacity:0.004" fill="#dad0d2" d="M 429.5,222.5 C 430.833,223.167 430.833,223.167 429.5,222.5 Z"/></g>
<g><path style="opacity:0.059" fill="#eee9ea" d="M 109.5,219.5 C 109.594,222.068 110.928,223.568 113.5,224C 112.272,224.779 111.272,225.779 110.5,227C 111.695,228.533 111.695,230.033 110.5,231.5C 111.193,232.518 111.859,233.518 112.5,234.5C 110.956,234.297 109.622,233.63 108.5,232.5C 107.893,232.624 107.56,232.957 107.5,233.5C 106.005,233.989 104.671,234.655 103.5,235.5C 102.717,237.076 101.55,238.409 100,239.5C 98.548,238.093 98.7147,236.593 100.5,235C 98.331,233.672 97.9977,232.006 99.5,230C 99.0969,228.527 98.4303,227.194 97.5,226C 98.4162,225.626 99.2496,225.126 100,224.5C 101.844,225.711 102.678,227.044 102.5,228.5C 103.429,227.311 103.762,225.978 103.5,224.5C 104.833,224.5 106.167,224.5 107.5,224.5C 107.67,225.822 107.337,226.989 106.5,228C 107.5,228.667 108.5,228.667 109.5,228C 109.438,225.062 109.438,222.228 109.5,219.5 Z"/></g>
<g><path style="opacity:0.051" fill="#dfdad8" d="M 435.5,227.5 C 436.5,227.5 437.5,227.5 438.5,227.5C 438.426,231.541 437.093,232.208 434.5,229.5C 434.863,228.817 435.196,228.15 435.5,227.5 Z"/></g>
<g><path style="opacity:1" fill="#b5ccdd" d="M 44.5,229.5 C 47.4841,229.787 48.8174,231.454 48.5,234.5C 46.8333,234.5 45.1667,234.5 43.5,234.5C 43.366,232.708 43.6993,231.042 44.5,229.5 Z"/></g>
<g><path style="opacity:0.071" fill="#f0e4e4" d="M 57.5,233.5 C 56.448,233.351 55.448,233.517 54.5,234C 56.0664,234.608 57.3998,235.442 58.5,236.5C 55.4124,236.803 53.7458,235.47 53.5,232.5C 55.099,232.232 56.4324,232.566 57.5,233.5 Z"/></g>
<g><path style="opacity:1" fill="#88adc3" d="M 338.5,232.5 C 341.707,232.124 344.373,233.124 346.5,235.5C 344.668,236.248 343.001,237.248 341.5,238.5C 339.423,237.012 338.423,235.012 338.5,232.5 Z"/></g>
<g><path style="opacity:1" fill="#a7bfd5" d="M 57.5,233.5 C 61.9315,233.231 66.2648,233.564 70.5,234.5C 70.5858,235.496 70.2524,236.329 69.5,237C 67.5273,237.495 65.5273,237.662 63.5,237.5C 61.9582,236.699 60.2915,236.366 58.5,236.5C 57.3998,235.442 56.0664,234.608 54.5,234C 55.448,233.517 56.448,233.351 57.5,233.5 Z"/></g>
<g><path style="opacity:0.237" fill="#e3e1e5" d="M 63.5,237.5 C 65.5273,237.662 67.5273,237.495 69.5,237C 70.2524,236.329 70.5858,235.496 70.5,234.5C 70.7828,233.711 71.2828,233.044 72,232.5C 73.7058,233.308 74.5391,234.641 74.5,236.5C 72.0902,237.389 69.5902,238.055 67,238.5C 65.6153,238.486 64.4486,238.152 63.5,237.5 Z"/></g>
<g><path style="opacity:0.012" fill="#e0d5d8" d="M 436.5,232.5 C 439.052,234.163 438.886,235.83 436,237.5C 435.626,236.584 435.126,235.75 434.5,235C 435.381,234.292 436.047,233.458 436.5,232.5 Z"/></g>
<g><path style="opacity:0.388" fill="#ebe5e8" d="M 103.5,235.5 C 104.959,235.433 106.292,235.766 107.5,236.5C 105.336,240.703 104.003,240.37 103.5,235.5 Z"/></g>
<g><path style="opacity:0.009" fill="#f5edec" d="M 107.5,233.5 C 109.678,234.657 111.678,235.99 113.5,237.5C 114.028,238.847 114.195,240.181 114,241.5C 113.667,241.167 113.333,240.833 113,240.5C 111.693,242.192 110.193,243.525 108.5,244.5C 108.751,242.83 109.418,241.33 110.5,240C 109.364,238.855 108.364,237.688 107.5,236.5C 107.5,235.5 107.5,234.5 107.5,233.5 Z"/></g>
<g><path style="opacity:0.022" fill="#ede9ed" d="M 435.5,238.5 C 439.31,239.754 439.31,240.754 435.5,241.5C 435.5,240.5 435.5,239.5 435.5,238.5 Z"/></g>
<g><path style="opacity:0.016" fill="#e8dddd" d="M 425.5,236.5 C 427.539,239.77 427.539,243.103 425.5,246.5C 425.096,245.244 424.429,244.077 423.5,243C 424.022,242.05 424.689,241.216 425.5,240.5C 423.121,238.895 423.121,237.562 425.5,236.5 Z"/></g>
<g><path style="opacity:0.071" fill="#f8e0e3" d="M 106.5,242.5 C 106.02,245.078 105.02,247.412 103.5,249.5C 104.248,247.416 104.248,245.416 103.5,243.5C 104.257,241.596 105.257,241.263 106.5,242.5 Z"/></g>
<g><path style="opacity:1" fill="#88adc3" d="M 324.5,246.5 C 325.833,246.5 327.167,246.5 328.5,246.5C 328.876,249.707 327.876,252.373 325.5,254.5C 324.52,251.914 324.187,249.247 324.5,246.5 Z"/></g>
<g><path style="opacity:1" fill="#f8fcfb" d="M 348.5,250.5 C 353.167,251.167 355.833,253.833 356.5,258.5C 351.833,257.833 349.167,255.167 348.5,250.5 Z"/></g>
<g><path style="opacity:0.004" fill="#e4ccce" d="M 425.5,247.5 C 425.923,249.781 425.256,251.448 423.5,252.5C 422.846,251.815 422.846,250.815 423.5,249.5C 423.747,248.287 424.414,247.62 425.5,247.5 Z"/></g>
<g><path style="opacity:0.027" fill="#ebdde0" d="M 103.5,249.5 C 105.03,251.52 105.697,253.52 105.5,255.5C 104.414,255.38 103.747,254.713 103.5,253.5C 102.628,251.946 102.628,250.612 103.5,249.5 Z"/></g>
<g><path style="opacity:1" fill="#f8fcfc" d="M 340.5,256.5 C 344.588,257.562 347.921,259.896 350.5,263.5C 349.167,264.833 347.833,264.833 346.5,263.5C 344.08,261.422 342.08,259.088 340.5,256.5 Z"/></g>
<g><path style="opacity:0.012" fill="#e2d5d7" d="M 423.5,254.5 C 424.936,255.429 426.269,256.595 427.5,258C 426.956,258.717 426.289,259.217 425.5,259.5C 424.5,258.5 423.5,257.5 422.5,256.5C 422.328,255.508 422.662,254.842 423.5,254.5 Z"/></g>
<g><path style="opacity:0.137" fill="#fbe3e4" d="M 422.5,257.5 C 422.821,259.048 423.821,259.715 425.5,259.5C 425.833,260.167 426.167,260.833 426.5,261.5C 424.411,261.143 422.411,260.477 420.5,259.5C 420.855,258.478 421.522,257.811 422.5,257.5 Z"/></g>
<g><path style="opacity:1" fill="#f5f7fa" d="M 226.5,269.5 C 227.675,269.281 228.675,269.614 229.5,270.5C 228.533,272.63 227.366,274.63 226,276.5C 223.458,286.88 220.791,297.214 218,307.5C 217.047,309.592 215.714,309.925 214,308.5C 209.686,297.374 204.519,286.708 198.5,276.5C 199.62,274.404 201.12,274.07 203,275.5C 207.341,285.201 211.675,294.868 216,304.5C 218.203,292.394 221.703,280.728 226.5,269.5 Z"/></g>
<g><path style="opacity:1" fill="#f3f7f9" d="M 234.5,278.5 C 235.5,278.5 236.5,278.5 237.5,278.5C 237.805,288.213 237.805,297.88 237.5,307.5C 236.914,307.291 236.414,306.957 236,306.5C 234.769,297.208 234.269,287.874 234.5,278.5 Z"/></g>
<g><path style="opacity:1" fill="#f6f8fa" d="M 262.5,278.5 C 267.528,278.513 269.528,280.846 268.5,285.5C 270.365,292.028 271.198,298.694 271,305.5C 270,306.833 269,306.833 268,305.5C 267.667,300.5 267.333,295.5 267,290.5C 264.309,296.197 260.475,301.03 255.5,305C 246.023,308.856 243.19,306.023 247,296.5C 250.939,289.398 256.106,283.398 262.5,278.5 Z"/></g>
<g><path style="opacity:1" fill="#f5f7fa" d="M 326.5,278.5 C 328.924,278.192 331.257,278.526 333.5,279.5C 333.333,279.833 333.167,280.167 333,280.5C 328.228,280.68 324.061,282.346 320.5,285.5C 319.674,286.451 319.508,287.451 320,288.5C 324.856,291.012 330.023,292.845 335.5,294C 339.552,298.517 338.886,302.517 333.5,306C 328.715,308.866 324.048,309.032 319.5,306.5C 321.178,302.909 323.345,302.576 326,305.5C 329.455,305.129 332.455,303.795 335,301.5C 335.798,299.741 335.631,298.074 334.5,296.5C 329.552,294.846 324.552,293.346 319.5,292C 316.278,290.01 315.778,287.51 318,284.5C 320.736,282.248 323.569,280.248 326.5,278.5 Z"/></g>
<g><path style="opacity:1" fill="#f4f7fa" d="M 278.5,279.5 C 279.496,279.414 280.329,279.748 281,280.5C 283.53,292.151 283.863,303.817 282,315.5C 279.159,317.504 275.993,318.004 272.5,317C 269.941,315.677 269.275,313.843 270.5,311.5C 272.253,313.261 274.253,314.594 276.5,315.5C 278.029,315.471 279.196,314.804 280,313.5C 280.256,302.141 279.756,290.808 278.5,279.5 Z"/></g>
<g><path style="opacity:1" fill="#f6f8fa" d="M 300.5,278.5 C 303.187,278.336 305.854,278.503 308.5,279C 310.048,284.176 308.048,287.51 302.5,289C 299.568,290.145 296.568,290.978 293.5,291.5C 292.228,302.749 296.562,305.916 306.5,301C 308.458,298.252 310.291,295.418 312,292.5C 310.822,303.009 304.989,307.509 294.5,306C 290.158,300.794 289.325,294.96 292,288.5C 293.978,284.362 296.811,281.029 300.5,278.5 Z"/></g>
<g><path style="opacity:1" fill="#9cbdd4" d="M 262.5,281.5 C 263.822,281.33 264.989,281.663 266,282.5C 265.591,290.476 262.091,296.976 255.5,302C 253.323,303.202 250.989,303.702 248.5,303.5C 250.651,294.524 255.318,287.19 262.5,281.5 Z"/></g>
<g><path style="opacity:1" fill="#a1c1d6" d="M 301.5,280.5 C 309.173,281.786 309.173,283.952 301.5,287C 299.466,288.205 297.466,288.372 295.5,287.5C 296.833,284.507 298.833,282.173 301.5,280.5 Z"/></g>
<g><path style="opacity:0.537" fill="#ded8da" d="M 96.5,282.5 C 99.7162,282.872 100.216,284.206 98,286.5C 96.013,288.088 93.8463,288.921 91.5,289C 91.0426,288.586 90.7093,288.086 90.5,287.5C 93.1391,286.502 95.1391,284.836 96.5,282.5 Z"/></g>
<g><path style="opacity:0.067" fill="#f9e4df" d="M 431.5,282.5 C 432.41,284.019 433.243,285.685 434,287.5C 434.667,286.167 435.333,286.167 436,287.5C 436.74,288.749 436.573,289.749 435.5,290.5C 434.554,289.069 433.388,287.736 432,286.5C 431.51,285.207 431.343,283.873 431.5,282.5 Z"/></g>
<g><path style="opacity:0.047" fill="#efdada" d="M 416.5,294.5 C 416.586,295.496 416.252,296.329 415.5,297C 417.134,297.494 418.801,297.66 420.5,297.5C 420.87,301.186 419.537,302.186 416.5,300.5C 414.721,298.656 412.388,297.99 409.5,298.5C 408.67,292.509 410.17,291.842 414,296.5C 414.708,295.619 415.542,294.953 416.5,294.5 Z"/></g>
<g><path style="opacity:0.004" fill="#fefffe" d="M 418.5,296.5 C 418.897,295.475 419.563,295.308 420.5,296C 419.906,296.464 419.239,296.631 418.5,296.5 Z"/></g>
<g><path style="opacity:0.275" fill="#d3cdcf" d="M 82.5,295.5 C 83.5,295.5 84.5,295.5 85.5,295.5C 85.762,296.978 85.4287,298.311 84.5,299.5C 82.8888,298.68 82.2222,297.346 82.5,295.5 Z"/></g>
<g><path style="opacity:0.055" fill="#eedcdd" d="M 406.5,301.5 C 407.609,301.557 408.609,301.89 409.5,302.5C 408.909,303.151 408.243,303.818 407.5,304.5C 408.311,305.216 408.978,306.05 409.5,307C 408.021,309.453 406.188,311.619 404,313.5C 403.717,310.866 402.717,308.2 401,305.5C 400.617,306.056 400.117,306.389 399.5,306.5C 400.035,304.554 401.368,303.554 403.5,303.5C 403.833,304.833 404.167,304.833 404.5,303.5C 405.167,303.5 405.5,303.167 405.5,302.5C 406.167,302.5 406.5,302.167 406.5,301.5 Z"/></g>
<g><path style="opacity:0.004" fill="#f3e9e6" d="M 399.5,306.5 C 398.952,309.084 397.285,310.084 394.5,309.5C 395.768,307.953 397.435,306.953 399.5,306.5 Z"/></g>
<g><path style="opacity:0.012" fill="#f4e5e6" d="M 115.5,301.5 C 115.416,305.689 115.749,310.022 116.5,314.5C 115.883,314.389 115.383,314.056 115,313.5C 114.306,309.446 114.473,305.446 115.5,301.5 Z"/></g>
<g><path style="opacity:0.004" fill="#d2cdcc" d="M 396.5,311.5 C 397.833,312.167 397.833,312.167 396.5,311.5 Z"/></g>
<g><path style="opacity:0.016" fill="#d5dbdb" d="M 407.5,311.5 C 409.337,311.639 409.67,312.306 408.5,313.5C 407.702,313.043 407.369,312.376 407.5,311.5 Z"/></g>
<g><path style="opacity:0.004" fill="#f2e4e5" d="M 394.5,309.5 C 394.5,311.167 394.5,312.833 394.5,314.5C 392.738,314.357 391.071,314.691 389.5,315.5C 388.818,314.757 388.151,314.091 387.5,313.5C 389.013,312.691 390.68,312.524 392.5,313C 392.011,311.448 392.678,310.281 394.5,309.5 Z"/></g>
<g><path style="opacity:0.004" fill="#e5d4d5" d="M 384.5,316.5 C 386.337,316.639 386.67,317.306 385.5,318.5C 384.702,318.043 384.369,317.376 384.5,316.5 Z"/></g>
<g><path style="opacity:0.031" fill="#eee1e3" d="M 381.5,319.5 C 381.082,320.222 380.416,320.722 379.5,321C 381.836,322.27 381.836,323.77 379.5,325.5C 378.749,324.624 378.249,323.624 378,322.5C 377.139,325.887 377.639,329.054 379.5,332C 378.971,333.559 378.304,335.059 377.5,336.5C 378.841,338.834 378.174,340.501 375.5,341.5C 373.591,340.652 371.591,340.318 369.5,340.5C 369.753,338.173 369.086,336.173 367.5,334.5C 367.977,333.522 368.643,332.689 369.5,332C 366.518,331.502 363.518,331.335 360.5,331.5C 360.967,328.174 362.134,327.841 364,330.5C 366.003,327.5 366.836,324.167 366.5,320.5C 365.287,319.503 365.454,318.503 367,317.5C 367.739,318.574 368.739,319.241 370,319.5C 371.667,318.167 373.333,318.167 375,319.5C 376.605,318.899 377.938,317.899 379,316.5C 379.377,317.942 380.21,318.942 381.5,319.5 Z"/></g>
<g><path style="opacity:0.575" fill="#98bcd2" d="M 369.5,322.5 C 370.756,322.904 371.923,323.571 373,324.5C 374.162,323.813 375.328,323.647 376.5,324C 375.623,327.918 375.623,331.585 376.5,335C 374.799,335.345 373.466,334.678 372.5,333C 373.711,332.107 373.711,331.274 372.5,330.5C 371.575,329.359 370.741,329.359 370,330.5C 369.46,328.865 369.96,327.532 371.5,326.5C 369.204,325.632 368.537,324.298 369.5,322.5 Z"/></g>
<g><path style="opacity:0.02" fill="#e5e3e3" d="M 391.5,322.5 C 393.465,322.948 393.798,323.948 392.5,325.5C 391.614,324.675 391.281,323.675 391.5,322.5 Z"/></g>
<g><path style="opacity:1" fill="#ced3df" d="M 119.5,316.5 C 119.586,317.496 119.252,318.329 118.5,319C 119.094,319.464 119.761,319.631 120.5,319.5C 116.512,324.655 112.012,329.321 107,333.5C 106.308,332.975 105.808,332.308 105.5,331.5C 109.455,325.877 114.121,320.877 119.5,316.5 Z"/></g>
<g><path style="opacity:0.01" fill="#e4d1d6" d="M 386.5,327.5 C 389.012,328.216 389.012,329.216 386.5,330.5C 385.438,329.575 385.438,328.575 386.5,327.5 Z"/></g>
<g><path style="opacity:0.063" fill="#f6e9eb" d="M 127.5,332.5 C 128.263,333.268 129.263,333.768 130.5,334C 129.934,334.995 129.267,335.828 128.5,336.5C 127.859,335.518 127.193,334.518 126.5,333.5C 126.624,332.893 126.957,332.56 127.5,332.5 Z"/></g>
<g><path style="opacity:0.171" fill="#e9d6dc" d="M 362.5,332.5 C 367.049,332.932 367.549,334.599 364,337.5C 362.731,336.095 362.231,334.429 362.5,332.5 Z"/></g>
<g><path style="opacity:0.055" fill="#f2e9e7" d="M 360.5,335.5 C 360.5,336.833 360.5,338.167 360.5,339.5C 366.296,338.631 366.63,339.631 361.5,342.5C 360.817,342.137 360.15,341.804 359.5,341.5C 359.579,340.07 359.246,338.736 358.5,337.5C 358.855,336.478 359.522,335.811 360.5,335.5 Z"/></g>
<g><path style="opacity:0.006" fill="#f9e9ea" d="M 167.5,338.5 C 165.285,339.268 162.952,339.935 160.5,340.5C 161.105,338.974 162.271,337.974 164,337.5C 165.011,338.337 166.178,338.67 167.5,338.5 Z"/></g>
<g><path style="opacity:0.006" fill="#f3ebed" d="M 196.5,341.5 C 195.924,344.124 194.59,344.791 192.5,343.5C 191.178,343.67 190.011,343.337 189,342.5C 188.536,343.094 188.369,343.761 188.5,344.5C 187.596,343.791 187.263,342.791 187.5,341.5C 188.93,341.421 190.264,341.754 191.5,342.5C 192.298,342.043 192.631,341.376 192.5,340.5C 193.999,338.198 195.332,338.531 196.5,341.5 Z"/></g>
<g><path style="opacity:0.055" fill="#e4e4e4" d="M 182.5,341.5 C 184.048,341.821 184.715,342.821 184.5,344.5C 181.752,344.598 181.086,343.598 182.5,341.5 Z"/></g>
<g><path style="opacity:0.024" fill="#d7bbc3" d="M 192.5,343.5 C 192.582,345.252 191.749,346.252 190,346.5C 188.97,346.164 188.47,345.497 188.5,344.5C 188.369,343.761 188.536,343.094 189,342.5C 190.011,343.337 191.178,343.67 192.5,343.5 Z"/></g>
<g><path style="opacity:0.141" fill="#ebdedc" d="M 207.5,340.5 C 210.147,342.449 210.147,344.449 207.5,346.5C 205.273,345.599 204.273,343.933 204.5,341.5C 205.791,341.737 206.791,341.404 207.5,340.5 Z"/></g>
<g><path style="opacity:0.016" fill="#e4d4d9" d="M 363.5,344.5 C 366.674,344.952 367.007,345.952 364.5,347.5C 362.481,346.867 362.147,345.867 363.5,344.5 Z"/></g>
<g><path style="opacity:0.012" fill="#faeced" d="M 128.5,344.5 C 126.85,346.651 125.017,348.651 123,350.5C 120.572,349.711 120.072,348.377 121.5,346.5C 121.461,347.756 121.961,348.756 123,349.5C 124.076,346.921 125.909,345.254 128.5,344.5 Z"/></g>
<g><path style="opacity:0.004" fill="#e8e2e1" d="M 203.5,345.5 C 204.833,346.167 204.833,346.167 203.5,345.5 Z"/></g>
<g><path style="opacity:0.004" fill="#e1d7d6" d="M 368.5,346.5 C 368.897,345.475 369.563,345.308 370.5,346C 369.906,346.464 369.239,346.631 368.5,346.5 Z"/></g>
<g><path style="opacity:0.012" fill="#f3e2e3" d="M 317.5,350.5 C 316.833,350.833 316.167,351.167 315.5,351.5C 314.571,350.685 313.571,349.852 312.5,349C 315.037,346.791 316.703,347.291 317.5,350.5 Z"/></g>
<g><path style="opacity:0.004" fill="#fefffe" d="M 362.5,348.5 C 363.833,349.167 363.833,349.167 362.5,348.5 Z"/></g>
<g><path style="opacity:0.008" fill="#e7dfe0" d="M 207.5,347.5 C 207.083,350.659 205.25,352.659 202,353.5C 200.174,352.99 200.007,352.156 201.5,351C 200.5,350.667 199.5,350.333 198.5,350C 201.601,350.09 204.601,349.257 207.5,347.5 Z"/></g>
<g><path style="opacity:0.012" fill="#eee3e3" d="M 189.5,355.5 C 189.657,354.127 189.49,352.793 189,351.5C 187.108,352.617 186.275,354.284 186.5,356.5C 187.5,356.5 188.5,356.5 189.5,356.5C 188.432,357.434 187.099,357.768 185.5,357.5C 185.373,353.714 186.54,350.381 189,347.5C 190.491,349.004 192.324,349.837 194.5,350C 193.064,352.182 191.397,354.016 189.5,355.5 Z"/></g>
<g><path style="opacity:0.884" fill="#98bcd2" d="M 189.5,355.5 C 189.5,355.833 189.5,356.167 189.5,356.5C 188.5,356.5 187.5,356.5 186.5,356.5C 186.275,354.284 187.108,352.617 189,351.5C 189.49,352.793 189.657,354.127 189.5,355.5 Z"/></g>
<g><path style="opacity:0.009" fill="#efe0e2" d="M 235.5,353.5 C 232.348,351.955 229.681,352.621 227.5,355.5C 225.564,353.022 223.564,353.022 221.5,355.5C 220.614,354.675 220.281,353.675 220.5,352.5C 216.769,350.888 213.102,350.222 209.5,350.5C 211.045,349.77 211.878,348.437 212,346.5C 213,347.833 214,347.833 215,346.5C 215.88,348.739 217.38,350.405 219.5,351.5C 224.018,351.442 228.518,351.108 233,350.5C 234.417,351.078 235.25,352.078 235.5,353.5 Z"/></g>
<g><path style="opacity:0.151" fill="#f5d4d3" d="M 338.5,358.5 C 336.388,357.725 334.388,357.725 332.5,358.5C 334.295,356.084 336.295,356.084 338.5,358.5 Z"/></g>
<g><path style="opacity:0.318" fill="#e5d2d8" d="M 156.5,356.5 C 160.379,357.836 160.379,359.502 156.5,361.5C 155.334,359.833 155.334,358.166 156.5,356.5 Z"/></g>
<g><path style="opacity:0.022" fill="#ede0e3" d="M 245.5,356.5 C 244.167,356.833 244.167,357.167 245.5,357.5C 247.105,358.006 247.439,358.673 246.5,359.5C 244.473,359.662 242.473,359.495 240.5,359C 239.663,357.989 239.33,356.822 239.5,355.5C 239.811,354.522 240.478,353.855 241.5,353.5C 243.545,354.534 244.879,355.534 245.5,356.5 Z"/></g>
<g><path style="opacity:0.031" fill="#f1e8e9" d="M 308.5,359.5 C 308.167,358.167 307.833,358.167 307.5,359.5C 306.833,359.5 306.5,359.833 306.5,360.5C 302.901,359.656 299.234,359.323 295.5,359.5C 295.5,359.167 295.5,358.833 295.5,358.5C 296.907,358.341 298.574,357.675 300.5,356.5C 301.478,356.977 302.311,357.643 303,358.5C 303.708,357.619 304.542,356.953 305.5,356.5C 306.11,358.85 306.444,358.517 306.5,355.5C 310.773,354.708 311.439,356.041 308.5,359.5 Z"/></g>
<g><path style="opacity:0.165" fill="#f8e0e5" d="M 172.5,359.5 C 170.139,359.674 167.806,360.007 165.5,360.5C 167.655,358.466 169.988,358.133 172.5,359.5 Z"/></g>
<g><path style="opacity:1" fill="#a2bfd4" d="M 172.5,359.5 C 174.153,359.66 175.486,360.326 176.5,361.5C 177.266,365.005 176.599,368.339 174.5,371.5C 170.677,375.678 167.344,375.345 164.5,370.5C 163.722,369.844 163.056,369.011 162.5,368C 163.233,366.234 163.567,364.401 163.5,362.5C 163.833,361.5 164.5,360.833 165.5,360.5C 167.806,360.007 170.139,359.674 172.5,359.5 Z"/></g>
<g><path style="opacity:0.039" fill="#e9e2e4" d="M 294.5,358.5 C 294.5,359.167 294.833,359.5 295.5,359.5C 295.369,360.239 295.536,360.906 296,361.5C 297.011,360.663 298.178,360.33 299.5,360.5C 299.778,362.346 299.111,363.68 297.5,364.5C 294.484,364.336 291.484,364.003 288.5,363.5C 288.369,362.624 288.702,361.957 289.5,361.5C 292.515,363.88 293.182,363.047 291.5,359C 292.448,358.517 293.448,358.351 294.5,358.5 Z"/></g>
<g><path style="opacity:0.008" fill="#f2dcdc" d="M 330.5,360.5 C 332.42,361.821 332.587,363.154 331,364.5C 329.972,362.639 328.472,361.305 326.5,360.5C 326.167,361.167 325.833,361.833 325.5,362.5C 324.478,362.145 323.811,361.478 323.5,360.5C 324.458,360.047 325.292,359.381 326,358.5C 327.33,359.582 328.83,360.249 330.5,360.5 Z"/></g>
<g><path style="opacity:0.02" fill="#e0e0e0" d="M 243.5,363.5 C 241.663,363.361 241.33,362.694 242.5,361.5C 243.298,361.957 243.631,362.624 243.5,363.5 Z"/></g>
<g><path style="opacity:0.082" fill="#dad1d3" d="M 302.5,360.5 C 304.625,361.368 304.791,362.368 303,363.5C 301.317,362.824 301.15,361.824 302.5,360.5 Z"/></g>
<g><path style="opacity:0.012" fill="#d8cacd" d="M 307.5,359.5 C 307.833,359.5 308.167,359.5 308.5,359.5C 311.512,362.369 310.845,363.702 306.5,363.5C 306.5,362.5 306.5,361.5 306.5,360.5C 307.167,360.5 307.5,360.167 307.5,359.5 Z"/></g>
<g><path style="opacity:0.004" fill="#fefffe" d="M 271.5,364.5 C 272.167,364.5 272.833,364.5 273.5,364.5C 273.167,365.5 272.5,366.167 271.5,366.5C 271.5,365.833 271.5,365.167 271.5,364.5 Z"/></g>
<g><path style="opacity:0.11" fill="#fbd7df" d="M 163.5,362.5 C 163.567,364.401 163.233,366.234 162.5,368C 163.056,369.011 163.722,369.844 164.5,370.5C 163.5,370.5 162.5,370.5 161.5,370.5C 161.294,367.505 161.96,364.838 163.5,362.5 Z"/></g>
<g><path style="opacity:0.018" fill="#f8edee" d="M 243.5,364.5 C 244.936,364.755 246.436,365.088 248,365.5C 248.585,366.998 248.085,367.998 246.5,368.5C 245.652,366.907 244.319,365.74 242.5,365C 242.728,364.601 243.062,364.435 243.5,364.5 Z"/></g>
<g><path style="opacity:0.055" fill="#f7dfe1" d="M 176.5,361.5 C 177.649,361.791 178.316,362.624 178.5,364C 178.079,366.185 177.579,368.351 177,370.5C 176.329,371.252 175.496,371.586 174.5,371.5C 176.599,368.339 177.266,365.005 176.5,361.5 Z"/></g>
<g><path style="opacity:0.004" fill="#e7dbde" d="M 267.5,361.5 C 268.458,361.953 269.292,362.619 270,363.5C 270.417,362.244 271.25,361.577 272.5,361.5C 271.89,362.391 271.557,363.391 271.5,364.5C 269.067,364.786 269.067,365.452 271.5,366.5C 268.52,369.739 265.186,370.072 261.5,367.5C 261.979,365.111 263.312,363.444 265.5,362.5C 265.279,363.735 264.612,364.735 263.5,365.5C 264.689,366.429 266.022,366.762 267.5,366.5C 267.5,364.833 267.5,363.167 267.5,361.5 Z"/></g>
<g><path style="opacity:0.357" fill="#e7e2e4" d="M 322.5,377.5 C 324.484,377.484 325.484,378.484 325.5,380.5C 324.285,384.43 322.952,384.43 321.5,380.5C 322.127,379.583 322.461,378.583 322.5,377.5 Z"/></g>
<g><path style="opacity:0.318" fill="#e9e6e6" d="M 243.5,375.5 C 242.559,377.466 241.559,379.466 240.5,381.5C 240.624,382.107 240.957,382.44 241.5,382.5C 241.315,384.196 240.481,385.529 239,386.5C 238.308,385.975 237.808,385.308 237.5,384.5C 238.78,380.917 240.78,377.917 243.5,375.5 Z"/></g>
<g><path style="opacity:1" fill="#c0c9d8" d="M 287.5,386.5 C 289.484,386.484 290.484,387.484 290.5,389.5C 290.566,391.266 289.732,392.266 288,392.5C 284.897,390.888 284.73,388.888 287.5,386.5 Z"/></g>
<g><path style="opacity:0.133" fill="#f1dfe2" d="M 234.5,394.5 C 230.686,391.144 228.353,391.977 227.5,397C 227.625,398.627 228.125,400.127 229,401.5C 230.741,400.242 232.574,399.242 234.5,398.5C 232.24,400.65 229.907,402.817 227.5,405C 226.552,405.483 225.552,405.649 224.5,405.5C 225.861,401.34 226.861,397.006 227.5,392.5C 229.209,390.29 231.209,390.123 233.5,392C 234.252,392.671 234.586,393.504 234.5,394.5 Z"/></g>
<g><path style="opacity:0.322" fill="#98bcd2" d="M 234.5,394.5 C 234.5,395.833 234.5,397.167 234.5,398.5C 232.574,399.242 230.741,400.242 229,401.5C 228.125,400.127 227.625,398.627 227.5,397C 228.353,391.977 230.686,391.144 234.5,394.5 Z"/></g>
<g><path style="opacity:0.01" fill="#fafafa" d="M 255.5,396.5 C 256.209,395.596 257.209,395.263 258.5,395.5C 258.66,397.199 258.494,398.866 258,400.5C 257.8,398.68 256.966,397.347 255.5,396.5 Z"/></g>
<g><path style="opacity:1" fill="#b5c8d9" d="M 218.5,398.5 C 221.833,398.837 222.833,400.504 221.5,403.5C 219.955,404.452 218.288,404.785 216.5,404.5C 216.253,402.142 216.919,400.142 218.5,398.5 Z"/></g>
<g><path style="opacity:0.004" fill="#fefffe" d="M 257.5,401.5 C 258.525,401.897 258.692,402.563 258,403.5C 257.536,402.906 257.369,402.239 257.5,401.5 Z"/></g>
<g><path style="opacity:0.384" fill="#e5d5d8" d="M 214.5,413.5 C 216.09,413.628 217.423,414.295 218.5,415.5C 216.628,418.582 214.295,421.249 211.5,423.5C 210.5,423.167 209.833,422.5 209.5,421.5C 210.946,419.382 211.613,417.049 211.5,414.5C 212.791,414.737 213.791,414.404 214.5,413.5 Z"/></g>
</svg>
